<svg width="82" height="83" viewBox="0 0 82 83" fill="none" xmlns="http://www.w3.org/2000/svg">
<g clip-path="url(#clip0)">
<path d="M11.9441 28.7742H69.8892V70.9294H11.9441V28.7742Z" fill="#95A5A5"/>
<path d="M64.6381 31.2333H74.4743V68.0026H64.6381V31.2333Z" fill="#D1D4D1"/>
<path d="M16.8618 67.3478H7.02563V32.5204H16.8618V67.3478Z" fill="#D1D4D1"/>
<path d="M61.8276 28.0715H77.2842V31.5847C77.2842 33.1367 76.0263 34.3946 74.4743 34.3946H64.6381C63.0855 34.3946 61.8276 33.1367 61.8276 31.5847V28.0715Z" fill="#BDC3C7"/>
<path d="M64.6381 65.3083H74.4743C76.0263 65.3083 77.2842 66.5669 77.2842 68.1189V71.632H61.8276V68.1189C61.8276 66.5669 63.0855 65.3083 64.6381 65.3083Z" fill="#BDC3C7"/>
<path d="M16.8618 34.3946H7.02561C5.47361 34.3946 4.21571 33.1367 4.21571 31.5847V28.0715H19.6723V31.5847C19.6723 33.1367 18.4144 34.3946 16.8618 34.3946Z" fill="#BDC3C7"/>
<path d="M19.6723 71.632H4.21571V68.1189C4.21571 66.5669 5.47361 65.3083 7.02561 65.3083H16.8618C18.4144 65.3083 19.6723 66.5669 19.6723 68.1189V71.632Z" fill="#BDC3C7"/>
<path d="M2.81052 21.3269H80.0947V27.3689C80.0947 28.1449 79.4655 28.7742 78.6895 28.7742H4.21577C3.43977 28.7742 2.81052 28.1449 2.81052 27.3689V21.3269Z" fill="#285680"/>
<path d="M4.21577 70.9294H78.6895C79.4655 70.9294 80.0947 71.5586 80.0947 72.3346V79.3603H2.81052V72.3346C2.81052 71.5586 3.43977 70.9294 4.21577 70.9294Z" fill="#285680"/>
<path d="M80.0947 23.1537H1.40526C0.629258 23.1537 7.26497e-07 22.5245 7.26497e-07 21.7485V14.3528C-0.000621069 13.7385 0.39795 13.195 0.983682 13.011L39.5008 1.05882C40.3147 0.805751 41.1853 0.805751 41.9992 1.05882L80.5163 13.011C81.1021 13.195 81.5006 13.7385 81.5 14.3528V21.7485C81.5 22.5245 80.8707 23.1537 80.0947 23.1537Z" fill="#4482C3"/>
<path d="M5.62042 17.5327V17.4581L40.3284 6.68484C40.5995 6.6009 40.8893 6.6009 41.1604 6.68484L75.8796 17.4581V17.5327H5.62042Z" fill="#285680"/>
<path d="M56.2066 49.8517C56.2066 58.3884 49.2867 65.3083 40.75 65.3083C32.2134 65.3083 25.2934 58.3884 25.2934 49.8517C25.2934 41.3151 32.2134 34.3945 40.75 34.3945C49.2867 34.3945 56.2066 41.3151 56.2066 49.8517Z" fill="#7ED09E"/>
<path d="M40.75 51.257C37.646 51.257 35.1296 48.7406 35.1296 45.636C35.1296 42.532 37.646 40.0156 40.75 40.0156C43.854 40.0156 46.3704 42.532 46.3704 45.636C46.3704 46.412 45.7418 47.0412 44.9658 47.0412C44.1898 47.0412 43.5605 46.412 43.5605 45.636C43.5605 44.084 42.302 42.8261 40.75 42.8261C39.198 42.8261 37.9395 44.084 37.9395 45.636C37.9395 47.1886 39.198 48.4465 40.75 48.4465C41.526 48.4465 42.1552 49.0757 42.1552 49.8517C42.1552 50.6278 41.526 51.257 40.75 51.257Z" fill="#24AE5F"/>
<path d="M40.75 59.688C37.646 59.688 35.1296 57.1716 35.1296 54.0676C35.1296 53.2909 35.7582 52.6623 36.5342 52.6623C37.3108 52.6623 37.9395 53.2909 37.9395 54.0676C37.9395 55.6196 39.198 56.8775 40.75 56.8775C42.302 56.8775 43.5605 55.6196 43.5605 54.0676C43.5605 52.5149 42.302 51.257 40.75 51.257C39.974 51.257 39.3447 50.6278 39.3447 49.8518C39.3447 49.0758 39.974 48.4465 40.75 48.4465C43.854 48.4465 46.3704 50.9629 46.3704 54.0676C46.3704 57.1716 43.854 59.688 40.75 59.688Z" fill="#24AE5F"/>
<path d="M40.75 61.0932C39.974 61.0932 39.3448 60.464 39.3448 59.688V40.0156C39.3448 39.2396 39.974 38.6104 40.75 38.6104C41.526 38.6104 42.1553 39.2396 42.1553 40.0156V59.688C42.1553 60.464 41.526 61.0932 40.75 61.0932Z" fill="#24AE5F"/>
<path d="M1.40526 76.5498H80.0947C80.8707 76.5498 81.5 77.1791 81.5 77.9551V80.7656C81.5 81.5416 80.8707 82.1708 80.0947 82.1708H1.40526C0.629257 82.1708 0 81.5416 0 80.7656V77.9551C0 77.1791 0.629257 76.5498 1.40526 76.5498Z" fill="#4482C3"/>
</g>
<defs>
<clipPath id="clip0">
<rect width="81.5" height="81.5" fill="white" transform="translate(0 0.710022)"/>
</clipPath>
</defs>
</svg>
