<svg width="18" height="25" viewBox="0 0 18 25" fill="none" xmlns="http://www.w3.org/2000/svg">
<path d="M0 3.59473C0 2.79908 0.31607 2.03602 0.87868 1.47341C1.44129 0.910797 2.20435 0.594727 3 0.594727L15 0.594727C15.7956 0.594727 16.5587 0.910797 17.1213 1.47341C17.6839 2.03602 18 2.79908 18 3.59473V23.8447C17.9999 23.9804 17.9631 24.1135 17.8933 24.2299C17.8236 24.3462 17.7236 24.4415 17.604 24.5055C17.4844 24.5696 17.3497 24.6 17.2142 24.5935C17.0787 24.587 16.9474 24.5439 16.8345 24.4687L9 20.2462L1.1655 24.4687C1.05256 24.5439 0.921345 24.587 0.785837 24.5935C0.650329 24.6 0.5156 24.5696 0.395999 24.5055C0.276399 24.4415 0.176406 24.3462 0.106671 24.2299C0.036936 24.1135 7.00806e-05 23.9804 0 23.8447V3.59473ZM3 2.09473C2.60218 2.09473 2.22064 2.25276 1.93934 2.53407C1.65804 2.81537 1.5 3.1969 1.5 3.59473V22.4437L8.5845 18.7207C8.70759 18.6388 8.85215 18.5951 9 18.5951C9.14785 18.5951 9.29241 18.6388 9.4155 18.7207L16.5 22.4437V3.59473C16.5 3.1969 16.342 2.81537 16.0607 2.53407C15.7794 2.25276 15.3978 2.09473 15 2.09473H3Z" fill="#555555"/>
</svg>
