<svg width="82" height="83" viewBox="0 0 82 83" fill="none" xmlns="http://www.w3.org/2000/svg">
<g clip-path="url(#clip0)">
<path d="M36.6263 15.7057C36.2485 15.7057 35.8759 15.5324 35.6347 15.2046C34.5163 13.6851 32.5263 11.9419 29.3947 12.2764C25.708 12.6691 22.9701 11.4957 21.3223 10.4424C20.75 10.0767 20.5827 9.31625 20.9483 8.744C21.314 8.17159 22.0747 8.00445 22.6468 8.37009C23.963 9.21119 26.157 10.1483 29.1343 9.83056C33.6531 9.35079 36.3877 12.0779 37.6157 13.7469C38.0183 14.2938 37.9011 15.0638 37.354 15.4663C37.1345 15.6277 36.8794 15.7057 36.6263 15.7057Z" fill="#FFD064"/>
<path d="M23.7507 22.2364C23.5312 22.2364 23.3093 22.1778 23.1084 22.0545C22.5294 21.6992 22.3484 20.942 22.7037 20.363C24.2801 17.795 27.1689 16.03 31.058 15.2589C33.8936 14.6969 36.2729 14.8508 36.3725 14.8578C37.0501 14.9043 37.5617 15.4912 37.5153 16.1688C37.4688 16.846 36.8804 17.3537 36.2057 17.3117C36.1204 17.306 27.7698 16.8109 24.7998 21.6497C24.5677 22.0281 24.1639 22.2364 23.7507 22.2364Z" fill="#FFD064"/>
<path d="M42.288 69.3606C62.4848 69.3606 73.6526 39.7356 41.7585 16.8547C40.9652 16.2854 40.494 15.369 40.5047 14.3926C40.5134 13.5857 40.7691 12.8024 41.2318 12.1414C42.7249 10.0091 44.8742 6.3617 46.163 3.42388C46.4717 2.7203 46.03 1.96356 45.2043 1.96356C43.2886 1.96372 43.2886 0.710022 41.3728 0.710022C39.4571 0.710022 39.4571 1.96372 37.5412 1.96372C35.9087 1.96372 35.2388 0.55912 34.4452 1.58073C32.1304 4.55994 40.0588 15.0367 40.0588 15.0367C5.04342 38.0556 16.3336 69.3607 37.0072 69.3607H42.288V69.3606Z" fill="#EABC6B"/>
<path d="M50.2276 15.0365C50.2276 15.0365 58.2736 4.59369 55.96 1.59809C55.1714 0.577107 54.499 1.96372 52.8682 1.96372C50.9522 1.96356 50.9522 0.710022 49.0361 0.710022C47.1202 0.710022 47.1202 1.96356 45.2043 1.96356C45.1099 1.96356 45.0238 1.95831 44.9383 1.95242C44.1686 5.25221 40.6995 10.3929 38.7144 13.1455C39.4961 14.2927 40.059 15.0364 40.059 15.0364C39.592 15.3434 39.1348 15.6522 38.6842 15.9621C72.1391 38.9571 60.945 69.3604 40.4845 69.3604H53.4032C74.1394 69.3606 85.3597 38.132 50.2276 15.0365Z" fill="#E8AE4D"/>
<path d="M51.7236 18.7508C47.0484 19.9316 42.4294 19.9316 37.7534 18.7508C36.1259 18.3398 35.2033 16.5097 35.7889 14.8461C35.7955 14.8275 35.802 14.8089 35.8085 14.7903C36.2996 13.3955 37.6923 12.6128 39.0572 12.9556C42.8855 13.9167 46.5902 13.917 50.4196 12.9556C51.7846 12.6128 53.1773 13.3955 53.6683 14.7903C53.6749 14.8089 53.6814 14.8275 53.6879 14.8461C54.2737 16.5097 53.3511 18.3398 51.7236 18.7508Z" fill="#FFE07D"/>
<path d="M7.76428 74.7316L25.5695 81.3589C27.0817 81.9217 28.6822 82.21 30.2958 82.21H48.6454C51.2133 82.21 53.7284 81.4803 55.8975 80.1058L78.873 65.5472C80.3889 64.2012 80.6699 61.9393 79.5295 60.2633C78.2817 58.4295 76.2176 58.1108 73.9463 59.1848L51.5774 69.0339L51.6038 65.4048C51.3076 62.4259 49.0139 60.0352 46.05 59.6159L32.4281 58.0475C29.2857 57.6029 27.7155 56.5498 24.9761 54.9473C21.2361 52.7595 16.9813 51.6064 12.6484 51.6064H7.76428V74.7316Z" fill="#FFDDCE"/>
<path d="M24.4882 77.8276C26.0779 78.4193 27.7606 78.7224 29.4568 78.7224H48.7472C50.8009 78.7224 52.8218 78.2773 54.6755 77.4287L68.1642 68.8814C69.4174 68.0873 70.213 66.705 70.1723 65.2219C70.1506 64.4354 69.9103 63.6481 69.4392 62.956C69.4392 62.956 69.0286 62.2522 68.6066 61.5359L51.5774 69.0339L51.6038 65.4048C51.3076 62.4259 49.0139 60.0352 46.05 59.6159L32.4281 58.0475C29.2857 57.6029 27.7155 56.5498 24.9761 54.9473C21.2361 52.7595 16.9813 51.6064 12.6484 51.6064H7.76428V71.6028L24.4882 77.8276Z" fill="#FFDDCE"/>
<path d="M79.5293 60.2633C78.2815 58.4295 76.2174 58.1108 73.9461 59.1848L67.7933 61.8939C68.0913 62.3655 68.3283 62.742 68.3283 62.742C69.4687 64.418 69.1877 66.68 67.6719 68.026L54.2844 76.509C52.5212 77.3162 50.5987 77.7396 48.6451 77.7396H30.2958C28.6822 77.7396 27.0817 77.4513 25.5695 76.8885L7.76428 70.261V74.7314L25.5695 81.3589C27.0817 81.9217 28.6822 82.21 30.2958 82.21H45.2877H48.6456C51.2135 82.21 53.7285 81.4803 55.8977 80.1058L78.8732 65.5472C80.3887 64.2012 80.6699 61.9391 79.5293 60.2633Z" fill="#FFCBBE"/>
<path d="M49.9337 61.666L49.933 61.7535L49.9908 61.728C49.972 61.707 49.9526 61.6868 49.9337 61.666Z" fill="#F5DBCC"/>
<path d="M51.5772 69.0317H37.6683C36.989 69.0317 36.4384 68.4812 36.4384 67.8018C36.4384 67.1225 36.9889 66.572 37.6683 66.572H51.5952L51.5772 69.0317Z" fill="#FFCBBE"/>
<path d="M11.5956 78.2781C11.5956 79.57 10.5484 80.6173 9.25646 80.6173H3.611C2.31909 80.6173 1.27185 79.57 1.27185 78.2781V49.636C1.27185 48.3441 2.31909 47.2968 3.611 47.2968H9.25646C10.5484 47.2968 11.5956 48.3441 11.5956 49.636V78.2781Z" fill="#407093"/>
<path d="M47.852 38.8219C47.2888 38.6228 46.7705 38.4324 46.2924 38.2486V30.4074C47.7469 30.6485 48.6202 31.401 48.6842 31.4578C49.1839 31.9121 49.9568 31.8787 50.4153 31.3816C50.8758 30.8822 50.8444 30.1045 50.3451 29.6438C50.2586 29.5637 48.7525 28.2069 46.2922 27.9235V26.175C46.2922 25.4957 45.7418 24.9451 45.0624 24.9451C44.383 24.9451 43.8326 25.4956 43.8326 26.175V28.0232C43.536 28.08 43.2323 28.1523 42.9201 28.2462C40.8339 28.8745 39.2746 30.6633 38.8504 32.9143C38.4655 34.9569 39.113 36.9213 40.5406 38.041C41.36 38.6838 42.3918 39.2723 43.8326 39.9013V49.6275C42.4093 49.5678 41.5353 49.2998 40.0076 48.3006C39.4392 47.9289 38.6772 48.0881 38.3054 48.6565C37.9335 49.2248 38.0929 49.987 38.6613 50.3588C40.6689 51.6722 42.0109 52.0148 43.8326 52.0856V54.0378C43.8326 54.717 44.383 55.2676 45.0624 55.2676C45.7418 55.2676 46.2922 54.7171 46.2922 54.0378V51.9992C49.7445 51.439 51.7591 48.6446 52.1971 46.0379C52.745 42.7809 51.0391 39.9486 47.852 38.8219ZM42.0585 36.1055C41.3564 35.5549 41.0534 34.5066 41.2677 33.3697C41.4662 32.3155 42.1911 31.0345 43.6298 30.6013C43.6982 30.5806 43.7655 30.5627 43.8329 30.5448V37.1878C43.0963 36.8203 42.5188 36.4666 42.0585 36.1055ZM49.7719 45.6297C49.5005 47.2437 48.3158 48.9666 46.2924 49.4852V40.8746C46.5316 40.9621 46.7761 41.0505 47.0321 41.1409C50.0926 42.2227 49.9029 44.8502 49.7719 45.6297Z" fill="white"/>
</g>
<defs>
<clipPath id="clip0">
<rect width="81.5" height="81.5" fill="white" transform="translate(0 0.710022)"/>
</clipPath>
</defs>
</svg>
