<svg width="100" height="100" viewBox="0 0 100 100" fill="none" xmlns="http://www.w3.org/2000/svg">
<g clip-path="url(#clip0)">
<path d="M77.1227 45.4283C76.976 45.3062 76.79 45.2393 76.599 45.2393C76.4082 45.2393 76.2223 45.3064 76.0756 45.4283L70.7756 49.8361C70.6969 49.9016 70.6033 49.9363 70.5051 49.9363C70.2932 49.9363 70.0738 49.7758 70.0738 49.507V32.2494L66.3504 32.7727C66.3301 32.7756 66.31 32.7768 66.29 32.7768C66.0824 32.7768 65.9053 32.6279 65.8691 32.4229L64.9275 27.0838C64.8838 26.8342 64.7299 26.6225 64.5059 26.5031L59.7191 23.9578C59.5145 23.8488 59.4338 23.6004 59.5354 23.3922L61.9117 18.5195C62.023 18.2916 62.023 18.0299 61.9117 17.8018L59.5354 12.9289C59.4338 12.7207 59.5146 12.4723 59.7191 12.3633L64.5059 9.81777C64.6854 9.72226 64.8166 9.56602 64.8855 9.37988H20.6115C20.0559 9.37988 19.6055 9.83027 19.6055 10.3859V65.0014C21.001 64.6459 22.4621 64.4562 23.967 64.4562C33.7125 64.4562 41.6412 72.3848 41.6412 82.1305C41.6412 84.5908 41.1354 86.935 40.223 89.0652H78.018C78.5736 89.0652 79.024 88.6148 79.024 88.0592V47.0098L77.1227 45.4283Z" fill="#D8ECFE"/>
<path d="M23.967 64.4562C26.1148 64.4562 28.1742 64.8418 30.0801 65.5467V10.3859C30.0801 9.83027 30.5305 9.37988 31.0861 9.37988H20.6115C20.0559 9.37988 19.6055 9.83027 19.6055 10.3859V65.0014C21.0012 64.6457 22.4623 64.4562 23.967 64.4562V64.4562Z" fill="#C4E2FF"/>
<path d="M61.5323 19.2971C61.4942 19.2942 61.4563 19.2913 61.4175 19.2913H37.2114C36.4022 19.2913 35.7466 19.9471 35.7466 20.7561C35.7466 21.5651 36.4022 22.2209 37.2114 22.2209H60.1063L61.5323 19.2971Z" fill="#8AC9FE"/>
<path d="M65.8692 32.423L65.3855 29.6804H45.1704C44.3612 29.6804 43.7056 30.3363 43.7056 31.1453C43.7056 31.9542 44.3612 32.6101 45.1704 32.6101H65.953C65.9118 32.5568 65.8817 32.4935 65.8692 32.423V32.423Z" fill="#8AC9FE"/>
<path d="M40.5427 32.6101H29.314C28.5048 32.6101 27.8491 31.9542 27.8491 31.1453C27.8491 30.3363 28.5048 29.6804 29.314 29.6804H40.5427C41.3519 29.6804 42.0075 30.3363 42.0075 31.1453C42.0075 31.9542 41.3519 32.6101 40.5427 32.6101V32.6101Z" fill="#8AC9FE"/>
<path d="M70.0738 36.4752C69.8523 36.3406 69.5934 36.2617 69.3152 36.2617H59.6572C58.848 36.2617 58.1924 36.9176 58.1924 37.7266C58.1924 38.5355 58.848 39.1914 59.6572 39.1914H69.3152C69.5934 39.1914 69.8523 39.1125 70.0738 38.9779V36.4752Z" fill="#8AC9FE"/>
<path d="M54.8286 39.1914H29.314C28.5048 39.1914 27.8491 38.5355 27.8491 37.7266C27.8491 36.9176 28.5048 36.2617 29.314 36.2617H54.8286C55.6378 36.2617 56.2935 36.9176 56.2935 37.7266C56.2935 38.5355 55.6376 39.1914 54.8286 39.1914Z" fill="#8AC9FE"/>
<path d="M70.0739 43.0565C69.8524 42.9219 69.5935 42.843 69.3153 42.843H29.314C28.5048 42.843 27.8491 43.4989 27.8491 44.3079C27.8491 45.1168 28.5048 45.7727 29.314 45.7727H69.3155C69.5937 45.7727 69.8526 45.6938 70.0741 45.5592V43.0565H70.0739Z" fill="#8AC9FE"/>
<path d="M69.3153 54.5159H29.314C28.5048 54.5159 27.8491 53.86 27.8491 53.051C27.8491 52.242 28.5048 51.5862 29.314 51.5862H69.3155C70.1247 51.5862 70.7804 52.242 70.7804 53.051C70.7804 53.86 70.1245 54.5159 69.3153 54.5159V54.5159Z" fill="#8AC9FE"/>
<path d="M69.3151 61.0972H57.645C56.8358 61.0972 56.1802 60.4413 56.1802 59.6323C56.1802 58.8233 56.8358 58.1675 57.645 58.1675H69.3151C70.1243 58.1675 70.78 58.8233 70.78 59.6323C70.78 60.4413 70.1243 61.0972 69.3151 61.0972Z" fill="#8AC9FE"/>
<path d="M53.0177 61.0972H29.314C28.5048 61.0972 27.8491 60.4413 27.8491 59.6323C27.8491 58.8233 28.5048 58.1675 29.314 58.1675H53.0177C53.8269 58.1675 54.4825 58.8233 54.4825 59.6323C54.4825 60.4413 53.8269 61.0972 53.0177 61.0972Z" fill="#8AC9FE"/>
<path d="M69.315 64.749H29.3137C28.9898 64.749 28.6916 64.8553 28.4492 65.0332C30.5133 65.5748 32.4309 66.4809 34.1293 67.6787H69.3152C70.1244 67.6787 70.7801 67.0229 70.7801 66.2139C70.7801 65.4049 70.1242 64.749 69.315 64.749V64.749Z" fill="#8AC9FE"/>
<path d="M69.3153 74.2598H50.2007C49.3915 74.2598 48.7358 73.6039 48.7358 72.7949C48.7358 71.9859 49.3915 71.3301 50.2007 71.3301H69.3153C70.1245 71.3301 70.7802 71.9859 70.7802 72.7949C70.7802 73.6039 70.1245 74.2598 69.3153 74.2598Z" fill="#8AC9FE"/>
<path d="M45.5728 71.3301H37.9468C38.6517 72.2404 39.2696 73.2211 39.7884 74.2598H45.5728C46.3819 74.2598 47.0376 73.6039 47.0376 72.7949C47.0376 71.9859 46.3819 71.3301 45.5728 71.3301Z" fill="#8AC9FE"/>
<path d="M69.3147 77.9114H41.1304C41.3638 78.8604 41.5208 79.8391 41.5933 80.8411H69.3147C70.1239 80.8411 70.7796 80.1852 70.7796 79.3762C70.7796 78.5672 70.1239 77.9114 69.3147 77.9114Z" fill="#8AC9FE"/>
<path d="M81.4796 32.0182C81.4417 32.0129 81.4036 32.0102 81.3657 32.0102C81.1526 32.0102 80.9507 32.0918 80.7972 32.2399L76.8972 36.0059C76.8169 36.0833 76.7112 36.126 76.5999 36.126C76.4884 36.126 76.3827 36.0833 76.3024 36.0057L72.4024 32.2399C72.2489 32.0917 72.047 32.01 71.8339 32.01C71.796 32.01 71.7579 32.0127 71.7198 32.018L69.8794 32.2766V49.5069C69.8794 50.0352 70.4952 50.3239 70.9013 49.9862L76.2011 45.5784C76.4321 45.3862 76.7673 45.3862 76.9983 45.5784L82.2983 49.9862C82.7046 50.3239 83.3202 50.0352 83.3202 49.5069V32.2766L81.4796 32.0182Z" fill="#FE646F"/>
<path d="M72.2664 32.3808C72.1283 32.2476 71.9367 32.1853 71.7467 32.2118L69.8789 32.4743V49.5074C69.8789 50.0357 70.4947 50.3243 70.9008 49.9866L76.1566 45.6155V36.1374L72.2664 32.3808Z" fill="#FD4755"/>
<path d="M77.0324 0.174805L80.9324 3.94062C81.0705 4.07383 81.2621 4.13613 81.4521 4.10957L86.8209 3.35527C87.1533 3.30859 87.4632 3.53359 87.5214 3.86426L88.463 9.20332C88.4964 9.39219 88.6148 9.55527 88.7843 9.64551L93.571 12.191C93.8675 12.3486 93.9859 12.7129 93.8386 13.0146L91.4623 17.8875C91.3781 18.06 91.3781 18.2615 91.4623 18.434L93.8386 23.3068C93.9859 23.6086 93.8675 23.9728 93.571 24.1305L88.7843 26.676C88.615 26.766 88.4964 26.9291 88.463 27.1182L87.5214 32.4572C87.463 32.7879 87.1533 33.0129 86.8209 32.9662L81.4521 32.2119C81.2621 32.1851 81.0705 32.2475 80.9324 32.3809L77.0324 36.1467C76.7908 36.3799 76.408 36.3799 76.1664 36.1467L72.2664 32.3809C72.1283 32.2477 71.9367 32.1853 71.7466 32.2119L66.3779 32.9662C66.0455 33.0129 65.7355 32.7879 65.6773 32.4572L64.7357 27.1182C64.7023 26.9293 64.5839 26.7662 64.4144 26.676L59.6277 24.1305C59.3312 23.9728 59.2128 23.6086 59.3601 23.3068L61.7365 18.434C61.8207 18.2615 61.8207 18.06 61.7365 17.8875L59.3601 13.0146C59.2128 12.7129 59.3312 12.3486 59.6277 12.191L64.4144 9.64551C64.5837 9.55547 64.7023 9.39238 64.7357 9.20332L65.6773 3.86426C65.7357 3.53359 66.0455 3.30859 66.3779 3.35527L71.7466 4.10957C71.9367 4.13633 72.1283 4.07402 72.2664 3.94062L76.1664 0.174805C76.408 -0.0585937 76.7908 -0.0585937 77.0324 0.174805V0.174805Z" fill="#FED402"/>
<path d="M76.5989 27.2357C81.6109 27.2357 85.6739 23.1727 85.6739 18.1607C85.6739 13.1487 81.6109 9.08569 76.5989 9.08569C71.5869 9.08569 67.5239 13.1487 67.5239 18.1607C67.5239 23.1727 71.5869 27.2357 76.5989 27.2357Z" fill="#97D729"/>
<path d="M73.9017 18.1607C73.9017 14.271 76.3493 10.9542 79.788 9.66323C78.7958 9.29077 77.7216 9.08569 76.5991 9.08569C71.587 9.08569 67.5239 13.1488 67.5239 18.1607C67.5239 23.1726 71.587 27.2357 76.5991 27.2357C77.7216 27.2357 78.7956 27.0306 79.788 26.658C76.3493 25.3669 73.9017 22.0503 73.9017 18.1607V18.1607Z" fill="#8BC727"/>
<path d="M76.5989 28.7005C70.7872 28.7005 66.0591 23.9724 66.0591 18.1606C66.0591 12.3489 70.7872 7.62061 76.5989 7.62061C82.4106 7.62061 87.139 12.3487 87.139 18.1606C87.139 23.9724 82.4106 28.7005 76.5989 28.7005V28.7005ZM76.5989 10.5503C72.4028 10.5503 68.9888 13.9642 68.9888 18.1606C68.9888 22.3569 72.4026 25.7708 76.5989 25.7708C80.7952 25.7708 84.2093 22.3569 84.2093 18.1606C84.2093 13.9644 80.7954 10.5503 76.5989 10.5503V10.5503Z" fill="#E8B800"/>
<path d="M76.0229 22.1915C75.6481 22.1915 75.2731 22.0485 74.987 21.7624L71.4618 18.2372C70.8897 17.6651 70.8897 16.7376 71.4618 16.1657C72.034 15.5937 72.9614 15.5937 73.5334 16.1657L76.0227 18.6552L79.6649 15.0128C80.2372 14.4407 81.1645 14.4407 81.7366 15.0128C82.3086 15.5849 82.3086 16.5124 81.7366 17.0843L77.0584 21.7624C76.7727 22.0483 76.3977 22.1915 76.0229 22.1915V22.1915Z" fill="white"/>
<path d="M23.9672 99.9998C33.8363 99.9998 41.8367 91.9993 41.8367 82.1303C41.8367 72.2612 33.8363 64.2607 23.9672 64.2607C14.0981 64.2607 6.09766 72.2612 6.09766 82.1303C6.09766 91.9993 14.0981 99.9998 23.9672 99.9998Z" fill="#FED402"/>
<path d="M13.7801 82.1303C13.7801 73.5813 19.784 66.4357 27.8049 64.6768C26.5684 64.4059 25.285 64.2607 23.9672 64.2607C14.098 64.2607 6.09766 72.2611 6.09766 82.1303C6.09766 91.9994 14.0982 99.9998 23.9672 99.9998C25.285 99.9998 26.5684 99.8547 27.8049 99.5838C19.784 97.825 13.7801 90.6793 13.7801 82.1303V82.1303Z" fill="#FAC600"/>
<path d="M23.9672 90.714C20.8982 90.714 18.4014 88.2171 18.4014 85.1482C18.4014 84.3392 19.057 83.6833 19.8662 83.6833C20.6754 83.6833 21.3311 84.3392 21.3311 85.1482C21.3311 86.6017 22.5137 87.7843 23.9672 87.7843C25.4207 87.7843 26.6033 86.6017 26.6033 85.1482C26.6033 84.3392 27.259 83.6833 28.0682 83.6833C28.8773 83.6833 29.533 84.3392 29.533 85.1482C29.533 88.2171 27.0361 90.714 23.9672 90.714V90.714Z" fill="#C57A44"/>
<path d="M16.2197 82.8269C15.4105 82.8269 14.7549 82.171 14.7549 81.362V78.02C14.7549 77.211 15.4105 76.5552 16.2197 76.5552C17.0289 76.5552 17.6846 77.211 17.6846 78.02V81.362C17.6846 82.171 17.0287 82.8269 16.2197 82.8269Z" fill="#C57A44"/>
<path d="M31.7144 82.8269C30.9052 82.8269 30.2495 82.171 30.2495 81.362V78.02C30.2495 77.211 30.9052 76.5552 31.7144 76.5552C32.5235 76.5552 33.1792 77.211 33.1792 78.02V81.362C33.1792 82.171 32.5233 82.8269 31.7144 82.8269Z" fill="#C57A44"/>
</g>
<defs>
<clipPath id="clip0">
<rect width="100" height="100" fill="white"/>
</clipPath>
</defs>
</svg>
