<svg width="80" height="83" viewBox="0 0 80 83" fill="none" xmlns="http://www.w3.org/2000/svg">
<path fill-rule="evenodd" clip-rule="evenodd" d="M12.5939 0.560486C9.62354 1.17433 7.21836 3.49947 6.33714 6.60916C5.93316 8.034 5.92644 13.1398 6.32652 14.4961C6.67585 15.6803 7.10514 16.5705 7.7087 17.3621C8.21247 18.0232 8.24605 17.9806 6.98037 18.2851C4.5691 18.8653 2.20608 20.8311 1.06595 23.2057C0.128364 25.1582 0.117589 25.2373 0.0560616 30.6006C0.0245172 33.3379 0.0412263 35.7517 0.0929154 35.9646C0.34324 36.9942 1.56707 37.3434 2.29431 36.5925L2.67768 36.1969V31.6034C2.67768 28.8619 2.74748 26.6654 2.85086 26.1555C3.3576 23.6553 5.4464 21.4498 7.84893 20.878C8.24308 20.7842 10.9959 20.7134 14.3343 20.711C20.9239 20.7067 21.3605 20.7707 23.0009 21.9832C23.968 22.6981 24.4697 23.315 25.0444 24.4953C25.7522 25.9497 25.7616 25.9123 24.6068 26.2537C22.7477 26.8032 20.668 28.5645 19.8069 30.3186C19.0573 31.8455 18.9232 32.6649 18.9001 35.8599C18.8721 39.7214 19.1139 40.7955 20.4316 42.665L20.9672 43.4253L20.5284 43.5257C18.7986 43.9214 17.7637 44.4187 16.3629 45.527C15.3471 46.3305 15.3278 46.3378 14.1939 46.3378C11.0537 46.3378 8.29133 48.1289 6.89229 51.0721C6.12695 52.6819 5.9786 53.7323 6.03528 57.1381C6.08448 60.0905 6.35432 61.1973 7.42792 62.8501C8.1664 63.9868 8.1839 63.9269 7.05017 64.1563C6.08572 64.3515 4.34485 65.2795 3.37088 66.1177C2.1903 67.1338 1.08266 68.7874 0.529071 70.3602C0.105564 71.5634 0.104784 71.5746 0.0524699 76.7646L0 81.9639L0.468013 82.4469C0.967101 82.9621 1.33923 83.0385 1.95044 82.7511C2.62568 82.4333 2.67768 82.0489 2.67768 77.3689C2.67768 74.7358 2.74811 72.6065 2.85196 72.0973C3.27827 70.0075 4.63859 68.2225 6.5339 67.266L7.59673 66.7295L13.907 66.6823C19.5149 66.6402 20.3119 66.6658 21.0685 66.9115C22.9599 67.5255 24.5531 69.0498 25.3434 71.0013C25.6854 71.8456 25.7065 72.1321 25.785 77.0203L25.8675 82.1525L26.3057 82.5413C26.8616 83.0344 27.3719 83.0344 27.9279 82.5413L28.3661 82.1525L28.4485 77.0203C28.5271 72.1321 28.5481 71.8456 28.8901 71.0013C29.6805 69.0498 31.2736 67.5255 33.165 66.9115C33.9216 66.6658 34.7187 66.6402 40.3265 66.6823L46.6368 66.7295L47.6996 67.266C49.5317 68.1906 50.9467 70.0007 51.3903 71.987C51.4772 72.3758 51.5499 74.7849 51.5521 77.3407L51.5559 81.9876L52.0123 82.4588C52.5706 83.0351 53.1081 83.0614 53.6943 82.5413L54.1325 82.1525L54.2147 77.0203C54.2909 72.2499 54.3204 71.8274 54.6329 71.0312C55.3859 69.1123 57.0422 67.5248 58.9315 66.9115C59.6881 66.6658 60.4851 66.6402 66.093 66.6823L72.4033 66.7295L73.453 67.2595C75.3436 68.214 76.7181 70.0142 77.1466 72.0973C77.2524 72.6115 77.3223 74.7098 77.3223 77.3689C77.3223 82.0489 77.3743 82.4333 78.0496 82.7511C78.6608 83.0385 79.0329 82.9621 79.532 82.4469L80 81.9639L79.9475 76.7646C79.8952 71.5746 79.8944 71.5634 79.4709 70.3602C78.6753 68.0995 77.0353 66.0898 75.1458 65.0595C73.3316 64.0705 73.0378 64.0176 68.7335 63.9061C65.1173 63.8123 64.669 63.7695 63.854 63.4413C62.6053 62.9382 61.4021 61.7629 60.8326 60.4896C60.3822 59.4828 60.3789 59.4534 60.3789 56.4127C60.3789 53.4394 60.391 53.324 60.7888 52.4634C61.3969 51.1485 62.1966 50.2949 63.3883 49.6894C64.3359 49.2079 64.5629 49.1588 65.8413 49.1596C67.54 49.1606 68.3219 49.4738 69.5248 50.6352C70.9711 52.0318 71.385 53.4061 71.387 56.8201C71.3884 58.9412 71.5325 59.3175 72.4084 59.4871C72.7827 59.5597 73.0679 59.5134 73.327 59.3382C73.9599 58.91 74.0975 58.1326 73.9999 55.5339C73.9048 53.0037 73.6357 51.8934 72.7314 50.3004C71.3762 47.9134 68.6187 46.3468 65.7602 46.3402C61.9793 46.3314 58.4891 49.3348 57.8141 53.1781C57.5712 54.5617 57.6077 58.6173 57.8749 59.919C58.124 61.132 58.6868 62.4035 59.3629 63.2808L59.811 63.8621L58.9238 64.0602C56.8492 64.5235 54.6035 66.0463 53.2479 67.9091L52.8587 68.444L52.2016 67.5455C51.1356 66.0882 49.6501 65.0111 47.7299 64.3034C47.0903 64.0676 46.2155 63.9976 42.889 63.9159L38.8288 63.8163L37.8138 63.3232C36.5732 62.7208 35.5565 61.7025 35.0176 60.5233C34.6237 59.6612 34.6125 59.5476 34.6125 56.4127V53.1888L35.0703 52.2554C35.6049 51.1656 36.5115 50.2485 37.6826 49.6129C38.4267 49.2091 38.6764 49.1604 40 49.1604C41.3236 49.1604 41.5733 49.2091 42.3174 49.6129C43.491 50.2499 44.3967 51.1673 44.9256 52.2554C45.3611 53.1509 45.3829 53.3022 45.4616 55.984L45.5437 58.779L45.9819 59.1676C46.2228 59.3812 46.5601 59.5561 46.7313 59.5561C47.1662 59.5561 47.9072 59.1359 48.0234 58.8235C48.2214 58.2909 48.1213 53.5291 47.8934 52.6457C47.4073 50.7598 45.9864 48.6687 44.5828 47.7734L44.036 47.4244L44.4776 47.1207C44.7204 46.9536 45.3657 46.6728 45.9115 46.4967C46.7655 46.2212 47.3538 46.1763 50.1278 46.1739C53.7746 46.1706 54.958 45.9891 56.5313 45.1915C57.811 44.5428 59.3309 43.0097 59.9493 41.7436C60.8118 39.9782 60.9255 39.3126 60.9255 36.0257C60.9255 31.6755 60.5473 30.475 58.5077 28.3517C57.3494 27.1459 56.2769 26.4942 54.8936 26.1558C54.1121 25.9645 54.0891 25.9422 53.9256 25.2104C53.1952 21.9442 50.3831 19.0352 47.2238 18.2776C46.8152 18.1795 46.3929 18.0717 46.2856 18.0382C46.1566 17.9977 46.3 17.6426 46.7099 16.988C47.8917 15.1006 48.0173 14.5626 48.0868 11.0908C48.1572 7.57635 48.0477 6.78712 47.253 5.07519C45.6657 1.65616 41.7787 -0.241157 38.1636 0.638829C35.9397 1.17997 33.705 2.96622 32.776 4.94494C31.9688 6.66461 31.8458 7.52961 31.9131 11.0142C31.9821 14.5835 32.1362 15.2489 33.3088 17.0436C33.7146 17.6642 33.8507 17.9935 33.7181 18.0324C33.6088 18.0646 33.0626 18.2134 32.5043 18.3632C31.0592 18.7507 30.0042 19.3819 29.7493 20.0117C29.2101 21.3437 30.6504 22.3412 31.9393 21.5285C33.1419 20.7702 33.762 20.7071 40.0119 20.7071C45.4869 20.7071 45.9733 20.7302 46.9263 21.0341C48.9125 21.6672 50.6821 23.5225 51.2501 25.567C51.3588 25.958 51.3248 26.0053 50.8708 26.0933C49.0112 26.4534 46.5728 28.4342 45.6394 30.3431C44.8361 31.9856 44.6845 32.8756 44.6872 35.934C44.6903 39.6026 45.0851 41.2415 46.3353 42.7753C46.5655 43.0576 46.7205 43.3229 46.6799 43.365C46.6393 43.4069 46.1913 43.5523 45.6844 43.688C44.3516 44.0452 43.3454 44.5611 42.1389 45.5058C41.0813 46.3341 41.0714 46.3378 39.9196 46.3378C36.3117 46.3378 33.0551 48.967 32.1066 52.6457C31.791 53.8695 31.795 58.9919 32.1127 60.2504C32.3866 61.3362 32.9515 62.5378 33.5108 63.2237C33.7302 63.4929 33.9097 63.7499 33.9097 63.7949C33.9097 63.8397 33.5409 63.9652 33.0899 64.0737C31.0464 64.5659 28.9891 65.9177 27.7914 67.5551L27.1272 68.4632L26.7403 67.9186C26.0216 66.9078 24.5993 65.598 23.6691 65.0904C21.8104 64.0765 21.529 64.0254 17.1225 63.9017C12.6449 63.776 12.2458 63.6988 10.9281 62.7026C10.102 62.0781 9.33651 61.0135 8.98562 60.0012C8.66159 59.0659 8.5237 55.6009 8.75123 54.1037C9.06729 52.0228 10.1398 50.4821 11.89 49.5948C12.6313 49.2189 12.9441 49.1588 14.1555 49.1588C15.3523 49.1588 15.693 49.2226 16.4504 49.5892C17.5874 50.1394 18.6741 51.2624 19.2007 52.4318C19.5844 53.2837 19.6178 53.5358 19.664 55.9291C19.6914 57.3477 19.7885 58.6636 19.8797 58.8533C20.063 59.2339 20.6335 59.5561 21.124 59.5561C21.2982 59.5561 21.6463 59.3441 21.8974 59.0849L22.3539 58.6138V56.2719C22.3539 54.9839 22.275 53.5457 22.1788 53.0758C21.7798 51.129 20.5259 49.0914 19.0558 48.0012L18.2742 47.4214L18.7133 47.1191C19.7925 46.3765 20.955 46.1766 24.2052 46.1753C27.9888 46.1739 28.9449 46.0297 30.5523 45.2184C32.5093 44.2308 33.9658 42.5643 34.7219 40.4477C35.0183 39.6181 35.0735 39.0797 35.1255 36.5047C35.194 33.0988 35.0207 31.9593 34.1835 30.3151C33.1981 28.3799 30.7097 26.3852 28.9103 26.0883C28.367 25.9985 28.3237 25.9468 28.1527 25.182C27.6793 23.065 26.2332 20.9573 24.3438 19.6308C23.2496 18.8625 22.1643 18.4064 20.601 18.0575L20.1754 17.9626L20.7974 17.1184C22.0603 15.4043 22.4223 13.6524 22.315 9.77543C22.2547 7.5965 22.1793 6.91141 21.9179 6.16667C20.49 2.10042 16.5642 -0.260018 12.5939 0.560486ZM63.935 0.616744C60.874 1.42322 58.3521 4.15007 57.8132 7.23638C57.6096 8.40185 57.5949 12.396 57.7896 13.6144C57.9986 14.9211 58.5 16.1649 59.2026 17.1184L59.8246 17.9626L59.399 18.0557C58.2005 18.3182 56.7476 18.88 56.4359 19.2015C55.9466 19.7064 55.9615 20.5948 56.4679 21.1174C56.9422 21.6071 57.3294 21.6136 58.4269 21.1508C59.2577 20.8003 59.4823 20.7868 65.271 20.7389C69.1676 20.7067 71.538 20.7507 72.0639 20.8648C74.4924 21.3918 76.6355 23.6216 77.1491 26.1555C77.2525 26.6654 77.3223 28.8619 77.3223 31.6034V36.1969L77.7057 36.5925C78.4329 37.3434 79.6568 36.9942 79.9071 35.9646C79.9588 35.7517 79.9741 33.3379 79.941 30.6006C79.876 25.2256 79.8615 25.1224 78.8853 23.1174C77.7591 20.804 75.3953 18.8567 73.0196 18.2851C71.754 17.9806 71.7875 18.0232 72.2913 17.3621C72.897 16.5677 73.3259 15.6766 73.6708 14.4961C74.0698 13.1301 74.0653 8.02158 73.6638 6.60916C73.2647 5.20528 72.7578 4.26549 71.8414 3.23043C70.8148 2.07092 69.9545 1.45933 68.618 0.938981C67.3276 0.436685 65.1799 0.288865 63.935 0.616744ZM16.1856 3.54605C17.8416 4.27016 19.0402 5.70129 19.4763 7.47576C19.8241 8.89029 19.7224 13.1598 19.3136 14.3108C18.9101 15.4471 17.5894 16.8461 16.3857 17.4126C15.5726 17.7952 15.1905 17.8752 14.1522 17.8802C13.0458 17.8855 12.7783 17.8244 11.859 17.3573C10.5877 16.7112 9.54764 15.573 9.05839 14.2917C8.7417 13.4625 8.70734 13.0963 8.70734 10.5516C8.70734 8.00692 8.7417 7.64067 9.05839 6.81146C9.67726 5.19093 10.9952 3.95582 12.75 3.35197C13.5449 3.07858 15.3492 3.18045 16.1856 3.54605ZM42.4339 3.77608C43.5739 4.35527 44.4064 5.24816 44.9761 6.50228C45.3764 7.38404 45.3875 7.49237 45.3875 10.5516C45.3875 13.6213 45.3777 13.7166 44.9706 14.6132C44.1887 16.3349 42.7223 17.4711 40.8075 17.8386C39.0212 18.1816 36.7056 17.2207 35.6322 15.6911C34.652 14.2942 34.5053 13.5468 34.5617 10.2313L34.6125 7.24702L35.1481 6.22728C36.6094 3.44498 39.7219 2.39783 42.4339 3.77608ZM68.0833 3.70177C69.304 4.26726 70.4428 5.50446 70.9391 6.80421C71.2589 7.64196 71.2927 8.00079 71.2927 10.5516C71.2927 13.0963 71.2583 13.4625 70.9416 14.2917C70.4524 15.573 69.4123 16.7112 68.141 17.3573C67.2217 17.8244 66.9542 17.8855 65.8478 17.8802C64.1575 17.8721 62.9703 17.3266 61.7978 16.0195C60.5999 14.6838 60.4239 14.0693 60.3394 10.9307C60.2829 8.82806 60.3193 8.14651 60.5288 7.38437C61.099 5.3107 62.6576 3.77947 64.7514 3.23591C65.5243 3.03538 67.1288 3.2596 68.0833 3.70177ZM29.4376 29.2278C30.6107 29.8238 31.4404 30.7073 32.0147 31.9717C32.4155 32.8538 32.4262 32.9602 32.4248 36.0211C32.4231 39.6721 32.3175 40.0667 30.9411 41.569C28.1089 44.6604 23.1503 43.5465 21.8267 39.5215C21.6309 38.926 21.5731 38.1096 21.5731 35.9409C21.5731 33.5017 21.6154 33.015 21.8938 32.2467C22.461 30.6817 24.0865 29.192 25.7113 28.7481C25.969 28.6776 26.6872 28.642 27.3073 28.6691C28.1946 28.7076 28.6484 28.8266 29.4376 29.2278ZM55.107 29.1643C56.2361 29.6874 57.339 30.8088 57.8523 31.9561C58.1544 32.6312 58.1983 33.0437 58.2437 35.6352C58.3004 38.8628 58.221 39.3724 57.4553 40.6902C56.0736 43.0685 53.0347 44.023 50.6027 42.8427C49.3843 42.2514 48.4295 41.2916 47.8519 40.0775C47.422 39.1738 47.4176 39.1325 47.4176 36.0211C47.4176 32.9721 47.4298 32.8508 47.8238 31.9837C49.1574 29.0486 52.2625 27.8465 55.107 29.1643Z" fill="white"/>
</svg>
