<svg width="100" height="100" viewBox="0 0 100 100" fill="none" xmlns="http://www.w3.org/2000/svg">
<path d="M94.1406 5.85938C94.1406 9.08203 91.5039 11.7188 88.2812 11.7188C85.0586 11.7188 82.4219 9.08203 82.4219 5.85938C82.4219 2.63672 85.0586 0 88.2812 0C91.5039 0 94.1406 2.63672 94.1406 5.85938Z" fill="#76E2F8"/>
<path d="M100 23.4375V36.2694C100 37.2658 99.1798 38.0859 98.1834 38.0859H94.1406V49.8047C94.1406 53.0273 91.5039 55.6641 88.2812 55.6641C85.0586 55.6641 82.4219 53.0273 82.4219 49.8047V38.0859H78.3791C77.3827 38.0859 76.5625 37.2658 76.5625 36.2694V23.4375C76.5625 16.9922 81.8359 11.7188 88.2812 11.7188C94.7266 11.7188 100 16.9922 100 23.4375Z" fill="#76E2F8"/>
<path d="M94.1406 5.85938C94.1406 9.08203 91.5039 11.7188 88.2812 11.7188V0C91.5039 0 94.1406 2.63672 94.1406 5.85938Z" fill="#25D9F8"/>
<path d="M100 23.4375V36.2694C100 37.2658 99.1798 38.0859 98.1834 38.0859H94.1406V49.8047C94.1406 53.0273 91.5039 55.6641 88.2812 55.6641V11.7188C94.7266 11.7188 100 16.9922 100 23.4375Z" fill="#25D9F8"/>
<path d="M100 61.5234C100 64.7461 97.3633 67.3828 94.1406 67.3828H5.85938C2.63672 67.3828 0 64.7461 0 61.5234C0 58.3008 2.63672 55.6641 5.85938 55.6641H94.1406C97.3633 55.6641 100 58.3008 100 61.5234Z" fill="#F6A96C"/>
<path d="M100 61.5234C100 64.7461 97.3633 67.3828 94.1406 67.3828H50V55.6641H94.1406C97.3633 55.6641 100 58.3008 100 61.5234Z" fill="#EA9B58"/>
<path d="M59.6093 55.1949C58.9066 50.4494 54.8051 46.875 50.0001 46.875C45.1951 46.875 41.0935 50.4494 40.3909 55.1949L36.2306 84.9411C36.1131 85.7613 36.348 86.6402 36.934 87.2849C37.4612 87.9295 38.2813 88.2812 39.1015 88.2812H60.8987C61.7188 88.2812 62.539 87.9295 63.0662 87.2849C63.6529 86.6402 63.8871 85.762 63.7696 84.9411L59.6093 55.1949Z" fill="#FED2A4"/>
<path d="M63.7695 84.9411C63.887 85.762 63.652 86.6402 63.0661 87.2849C62.5389 87.9295 61.7188 88.2812 60.8986 88.2812H50V46.875C54.805 46.875 58.9066 50.4494 59.6092 55.1949L63.7695 84.9411Z" fill="#FFBD86"/>
<path d="M67.5781 82.4219H32.4219C24.3362 82.4219 17.7734 88.9847 17.7734 97.0703C17.7734 98.7106 19.062 100 20.7031 100H79.2969C80.938 100 82.2266 98.7106 82.2266 97.0703C82.2266 88.9847 75.6638 82.4219 67.5781 82.4219Z" fill="#B35F49"/>
<path d="M82.2266 97.0703C82.2266 98.7106 80.938 100 79.2969 100H50V82.4219H67.5781C75.6638 82.4219 82.2266 88.9847 82.2266 97.0703Z" fill="#804231"/>
<path d="M17.5781 5.85938C17.5781 9.08203 14.9414 11.7188 11.7188 11.7188C8.49609 11.7188 5.85938 9.08203 5.85938 5.85938C5.85938 2.63672 8.49609 0 11.7188 0C14.9414 0 17.5781 2.63672 17.5781 5.85938Z" fill="#FF5B5B"/>
<path d="M23.4375 23.4375V36.2694C23.4375 37.2658 22.6173 38.0859 21.6209 38.0859H17.5781V49.8047C17.5781 53.0273 14.9414 55.6641 11.7188 55.6641C8.49609 55.6641 5.85938 53.0273 5.85938 49.8047V38.0859H1.81656C0.82016 38.0859 0 37.2658 0 36.2694V23.4375C0 16.9922 5.27344 11.7188 11.7188 11.7188C18.1641 11.7188 23.4375 16.9922 23.4375 23.4375Z" fill="#FF5B5B"/>
<path d="M17.5781 5.85938C17.5781 9.08203 14.9414 11.7188 11.7188 11.7188V0C14.9414 0 17.5781 2.63672 17.5781 5.85938Z" fill="#FF001E"/>
<path d="M23.4375 23.4375V36.2694C23.4375 37.2658 22.6173 38.0859 21.6209 38.0859H17.5781V49.8047C17.5781 53.0273 14.9414 55.6641 11.7188 55.6641V11.7188C18.1641 11.7188 23.4375 16.9922 23.4375 23.4375Z" fill="#FF001E"/>
</svg>
