<svg width="100" height="100" viewBox="0 0 100 100" fill="none" xmlns="http://www.w3.org/2000/svg">
<path d="M84.1797 66.4062V63.3342L90.3727 60.2377C91.1244 59.8619 91.6785 59.1814 91.8939 58.3693C92.1096 57.5572 91.9662 56.6916 91.5 55.9924L84.1797 45.0113V38.0859C84.1797 17.0854 67.0945 0 46.0938 0C25.093 0 8.00781 17.0854 8.00781 38.0859C8.00781 50.166 11.5496 61.8637 18.2504 71.915L19.7266 74.1293V97.0703C19.7266 98.6883 21.0383 100 22.6562 100H57.8125C59.4305 100 60.7422 98.6883 60.7422 97.0703V83.9844H75.3906C80.2369 83.9844 84.1797 80.0416 84.1797 75.1953V72.2656L81.8359 69.3359L84.1797 66.4062Z" fill="#BD8472"/>
<path d="M91.5002 55.9922L84.1797 45.0113V38.0859C84.1797 17.0854 67.0945 0 46.0938 0V100H57.8125C59.4305 100 60.7422 98.6883 60.7422 97.0703V83.9844H75.3906C80.2369 83.9844 84.1797 80.0416 84.1797 75.1953V72.2656L81.8359 69.3359L84.1797 66.4062V63.3342L90.3727 60.2377C91.1244 59.8619 91.6785 59.1814 91.8939 58.3693C92.1098 57.5568 91.9662 56.6914 91.5002 55.9922V55.9922Z" fill="#A05F4B"/>
<path d="M84.1797 72.2656H75.3906C73.7727 72.2656 72.4609 70.9539 72.4609 69.3359C72.4609 67.718 73.7727 66.4062 75.3906 66.4062H84.1797V72.2656Z" fill="#7D4B3B"/>
<path d="M28.5156 19.5312H63.6719V25.3906H28.5156V19.5312Z" fill="#BEBCDD"/>
<path d="M46.0938 19.5312H63.6719V25.3906H46.0938V19.5312Z" fill="#BEBCDD"/>
<path d="M46.0938 46.875C44.4758 46.875 43.1641 45.5633 43.1641 43.9453V16.6016C43.1641 14.9836 44.4758 13.6719 46.0938 13.6719C47.7117 13.6719 49.0234 14.9836 49.0234 16.6016V43.9453C49.0234 45.5633 47.7117 46.875 46.0938 46.875Z" fill="#F6F9F9"/>
<path d="M46.0938 13.6719V46.875C47.7117 46.875 49.0234 45.5633 49.0234 43.9453V16.6016C49.0234 14.9836 47.7117 13.6719 46.0938 13.6719Z" fill="#E2DFF4"/>
<path d="M39.2578 59.5703V47.8516C39.2578 44.0762 42.3184 41.0156 46.0938 41.0156C49.8691 41.0156 52.9297 44.0762 52.9297 47.8516V59.5703H39.2578Z" fill="#E2DFF4"/>
<path d="M52.9297 47.8516C52.9297 44.0762 49.8691 41.0156 46.0938 41.0156V59.5703H52.9297V47.8516Z" fill="#BEBCDD"/>
<path d="M55.8594 62.5H36.3281C34.7102 62.5 33.3984 61.1883 33.3984 59.5703C33.3984 57.9523 34.7102 56.6406 36.3281 56.6406H55.8594C57.4773 56.6406 58.7891 57.9523 58.7891 59.5703C58.7891 61.1883 57.4773 62.5 55.8594 62.5Z" fill="#F6F9F9"/>
<path d="M55.8594 56.6406H46.0938V62.5H55.8594C57.4773 62.5 58.7891 61.1883 58.7891 59.5703C58.7891 57.9523 57.4773 56.6406 55.8594 56.6406Z" fill="#E2DFF4"/>
<path d="M72.2744 37.0572L66.415 21.4322C65.9863 20.2889 64.8932 19.5312 63.6719 19.5312C62.4506 19.5312 61.3574 20.2889 60.9287 21.4322L55.0693 37.0572C54.9459 37.3861 54.8828 37.7346 54.8828 38.0859C54.8828 42.9322 58.8256 46.875 63.6719 46.875C68.5182 46.875 72.4609 42.9322 72.4609 38.0859C72.4609 37.7346 72.3979 37.3861 72.2744 37.0572ZM63.6719 30.8047L66.0361 37.1094H61.3076L63.6719 30.8047Z" fill="#FFC178"/>
<path d="M37.1182 37.0572L31.2588 21.4322C30.8301 20.2889 29.7369 19.5312 28.5156 19.5312C27.2943 19.5312 26.2012 20.2889 25.7725 21.4322L19.9131 37.0572C19.7896 37.3861 19.7266 37.7346 19.7266 38.0859C19.7266 42.9322 23.6693 46.875 28.5156 46.875C33.3619 46.875 37.3047 42.9322 37.3047 38.0859C37.3047 37.7346 37.2416 37.3861 37.1182 37.0572ZM28.5156 30.8047L30.8799 37.1094H26.1514L28.5156 30.8047Z" fill="#FFE278"/>
</svg>
