<svg width="30" height="20" viewBox="0 0 30 20" fill="none" xmlns="http://www.w3.org/2000/svg">
<path d="M1.82933 10.0441C0.776405 10.5871 0.331921 12.4779 0.241296 13.3555C-0.485713 17.1711 1.72334 17.834 2.91874 17.6886C3.81819 17.6299 6.29737 17.5377 9.01841 17.6383C11.7395 17.7388 11.8453 14.931 11.5581 13.5144C11.5399 11.5229 10.4016 10.3208 9.83473 9.96873C8.13407 9.36525 8.72363 9.79272 7.0003 10.5974C5.27698 11.402 3.84843 10.1952 3.73505 10.0443C3.62167 9.89347 3.14549 9.36542 1.82933 10.0441Z" fill="white"/>
<ellipse cx="5.78252" cy="5.98977" rx="3.33721" ry="3.70071" fill="white"/>
<path d="M19.9973 9.97869C18.9444 10.5217 18.4999 12.4125 18.4093 13.29C17.6823 17.1056 19.8913 17.7686 21.0867 17.6231C21.9862 17.5645 24.4653 17.4723 27.1864 17.5728C29.9074 17.6734 30.0132 14.8655 29.726 13.449C29.7079 11.4575 28.5696 10.2554 28.0027 9.9033C26.302 9.29982 26.8916 9.72729 25.1683 10.5319C23.4449 11.3366 22.0164 10.1298 21.903 9.97891C21.7896 9.82804 21.3135 9.29999 19.9973 9.97869Z" fill="white"/>
<ellipse cx="23.9505" cy="5.92434" rx="3.33721" ry="3.70071" fill="white"/>
<path d="M10.0389 8.18284C8.74217 8.92347 8.19476 11.5027 8.08315 12.6997C7.18779 17.9044 9.90838 18.8087 11.3806 18.6103C12.4883 18.5303 15.5416 18.4045 18.8927 18.5417C22.2439 18.6789 22.3742 14.8488 22.0205 12.9166C21.9981 10.2 20.5962 8.5603 19.8981 8.08C17.8036 7.25681 18.5297 7.8399 16.4073 8.93749C14.2849 10.0351 12.5256 8.38893 12.3859 8.18313C12.2463 7.97733 11.6598 7.25704 10.0389 8.18284Z" fill="white" stroke="#A7A7A7" stroke-width="2"/>
<ellipse cx="14.931" cy="3.99172" rx="3.33721" ry="3.70071" fill="white"/>
</svg>
