<svg width="82" height="83" viewBox="0 0 82 83" fill="none" xmlns="http://www.w3.org/2000/svg">
<g clip-path="url(#clip0)">
<path d="M40.75 82.21C40.5076 82.21 40.265 82.1731 40.031 82.0992C30.7097 79.1557 22.7288 73.4325 16.9504 65.5484C11.1723 57.664 8.11816 48.3301 8.11816 38.5552V14.2403C8.11816 12.9217 9.18721 11.8526 10.5059 11.8526C17.4023 11.8526 23.6724 8.07113 26.8832 1.98378C27.2963 1.20045 28.1094 0.710022 28.9951 0.710022H52.5048C53.3905 0.710022 54.2036 1.2003 54.6168 1.98378C57.8276 8.07113 64.0977 11.8526 70.9798 11.8526C72.2985 11.8526 73.3818 12.9217 73.3818 14.2403V38.5552C73.3818 48.3301 70.3277 57.664 64.5496 65.5482C58.7712 73.4324 50.7903 79.1555 41.469 82.0991C41.235 82.1731 40.9924 82.21 40.75 82.21Z" fill="#9DDFF6"/>
<path d="M70.9798 11.8526C64.0977 11.8526 57.8276 8.07113 54.6168 1.98378C54.2037 1.2003 53.3906 0.710022 52.5049 0.710022H40.75V82.21C40.9924 82.21 41.235 82.1731 41.469 82.0992C50.7903 79.1557 58.7712 73.4325 64.5496 65.5484C70.3277 57.664 73.3818 48.3301 73.3818 38.5552V14.2403C73.3818 12.9217 72.2985 11.8526 70.9798 11.8526Z" fill="#6BA7FF"/>
<path d="M40.75 72.0515C40.4375 72.0515 40.1251 71.9902 39.8311 71.8676C26.368 66.2537 17.6689 53.1779 17.6689 38.5553V22.2669C17.6689 21.2356 18.3311 20.3208 19.3109 19.9986C24.3788 18.3325 28.8422 15.2684 32.2184 11.1376C32.6719 10.5827 33.3505 10.2608 34.0672 10.2608H47.4327C48.1493 10.2608 48.8282 10.5827 49.2816 11.1376C52.6576 15.2691 57.121 18.3336 62.1891 20.0002C63.1689 20.3224 63.8309 21.2372 63.8309 22.2685V38.5553C63.8309 53.1779 55.1319 66.2537 41.6688 71.8675C41.3749 71.99 41.0625 72.0515 40.75 72.0515Z" fill="#F5F5FF"/>
<path d="M62.1893 20.0002C57.1212 18.3336 52.6578 15.2691 49.2817 11.1376C48.8282 10.5827 48.1493 10.2608 47.4327 10.2608H40.75V72.0515C41.0625 72.0515 41.3749 71.9902 41.6689 71.8676C55.132 66.2537 63.8311 53.1779 63.8311 38.5553V22.2685C63.8311 21.2372 63.169 20.3224 62.1893 20.0002Z" fill="#E2E7FA"/>
<path d="M37.0359 51.1313C36.4248 51.1313 35.8137 50.8982 35.3476 50.4318L27.9192 43.0034C26.9867 42.0711 26.9867 40.5592 27.9192 39.6267C28.8515 38.6942 30.3634 38.6942 31.2959 39.6267L37.036 45.3667L50.2045 32.1984C51.1368 31.266 52.6487 31.266 53.5812 32.1984C54.5136 33.1309 54.5136 34.6426 53.5812 35.5751L38.7245 50.4318C38.2581 50.8982 37.647 51.1313 37.0359 51.1313Z" fill="#6B61B1"/>
<path d="M50.2043 32.1986L40.75 41.6528V48.4061L53.5808 35.5753C54.5133 34.6428 54.5133 33.1311 53.5808 32.1986C52.6485 31.266 51.1366 31.266 50.2043 32.1986Z" fill="#453D81"/>
</g>
<defs>
<clipPath id="clip0">
<rect width="81.5" height="81.5" fill="white" transform="translate(0 0.710022)"/>
</clipPath>
</defs>
</svg>
