<svg width="100" height="62" viewBox="0 0 100 62" fill="none" xmlns="http://www.w3.org/2000/svg">
<path d="M81.6907 29.6526L79.1505 9.01729L74.3904 9.60323L74.3923 9.59991L65.1639 4.40637C64.1795 3.85247 63.0498 3.61145 61.925 3.71536L47.3536 5.06301C45.5624 5.22863 43.9618 6.2507 43.0581 7.80616L32.7878 25.4834C32.0294 26.7887 32.6247 28.4627 34.037 28.9961L34.4571 29.1547C35.2653 29.46 36.096 29.6367 36.9263 29.7059L35.6249 30.8393L33.0214 33.1076L25.6166 39.424C24.2984 40.5722 24.1615 42.5703 25.3097 43.8884L26.0609 44.7488C27.5355 46.4398 30.1021 46.6154 31.7962 45.1404L34.6263 48.3865C35.5464 49.4431 36.8944 49.9105 38.1895 49.7511C38.9679 49.6554 39.7272 49.3328 40.3614 48.7781L43.1884 52.0243C44.1118 53.0837 45.4596 53.548 46.7547 53.3886C47.5331 53.2927 48.2926 52.9732 48.927 52.4187L50.4633 53.7464C51.9383 55.4403 54.5078 55.6155 56.202 54.1406L58.2904 52.3185L75.8482 38.6443L75.8671 38.6269L82.7944 38.6201L81.6907 29.6526Z" fill="#F29F5C"/>
<path d="M74.1661 33.3107L74.1472 33.3281L56.5894 47.0023L54.501 48.8243C52.807 50.2993 50.2373 50.1241 48.7623 48.4302L47.226 47.1025C46.5916 47.657 45.8318 47.9767 45.0537 48.0724C43.7586 48.2318 42.411 47.7675 41.4873 46.7081L38.6604 43.4619C38.026 44.0164 37.2666 44.339 36.4885 44.4349C35.1934 44.5943 33.8454 44.1271 32.9253 43.0703L30.0952 39.8242C28.6448 41.0871 26.5565 41.1363 25.0599 40.0638C24.2923 41.2213 24.3536 42.79 25.3104 43.8884L26.0616 44.7488C27.5362 46.4398 30.1028 46.6154 31.7969 45.1404L34.627 48.3865C35.5471 49.4431 36.8952 49.9105 38.1903 49.7511C38.9686 49.6554 39.7278 49.3327 40.3621 48.7781L43.1891 52.0245C44.1125 53.0839 45.4604 53.5482 46.7555 53.3888C47.5338 53.2929 48.2934 52.9733 48.9277 52.4189L50.4641 53.7466C51.9391 55.4405 54.5086 55.6157 56.2027 54.1407L58.2912 52.3187L75.8489 38.6445L75.8679 38.6271L82.7952 38.6203L82.0288 32.3945L74.1661 33.3107Z" fill="#D37D42"/>
<path d="M77.3628 42.2366L67.9557 34.1253L65.3396 31.8714L63.4678 30.2593L55.4196 23.3218L56.3491 15.4097C56.6635 12.7337 54.9789 10.2285 52.3821 9.50993L34.8382 4.65545C32.982 4.14178 31.0201 5.00311 30.1419 6.71736L27.9357 11.024L18.4654 10.3812L16.0396 31.0304L14.9854 40.0039L24.2037 40.617L24.2228 40.6344L43.4809 57.2345L45.5796 59.0451C47.2817 60.5107 49.8503 60.3212 51.3159 58.6191L54.1245 55.3601C54.7618 55.9111 55.5233 56.2265 56.3022 56.3181C57.5981 56.4705 58.9434 55.9986 59.861 54.9342L62.6699 51.6723C63.3072 52.2232 64.0684 52.5418 64.8473 52.6332C66.1432 52.7855 67.4887 52.3107 68.4029 51.2488L71.2148 47.9871C72.917 49.4527 75.4826 49.2629 76.9478 47.5637L77.6943 46.699C78.8353 45.3748 78.6873 43.3776 77.3628 42.2366Z" fill="#F9C295"/>
<path d="M77.3629 42.2366L74.4975 39.7659C75.4288 41.0008 75.4096 42.7577 74.3586 43.9776L73.5663 44.8953C72.0108 46.6991 69.2874 46.9006 67.4804 45.3448L64.4952 48.8072C63.5247 49.9344 62.0964 50.4383 60.7206 50.2768C59.8939 50.1797 59.0859 49.8416 58.4093 49.2567L55.4273 52.7195C54.4533 53.8494 53.0254 54.3502 51.6496 54.1887C50.8228 54.0916 50.0144 53.7566 49.3379 53.1717L46.3562 56.6314C45.7945 57.284 45.0791 57.7236 44.3105 57.9502L45.5799 59.0453C47.282 60.5109 49.8506 60.3215 51.3162 58.6193L54.1248 55.3604C54.7621 55.9113 55.5236 56.2268 56.3025 56.3184C57.5984 56.4705 58.9437 55.9988 59.8613 54.9344L62.6702 51.6725C63.3075 52.2235 64.0687 52.542 64.8476 52.6334C66.1435 52.7858 67.489 52.311 68.4032 51.249L71.2151 47.9873C72.9172 49.4529 75.4829 49.2631 76.9481 47.5639L77.6946 46.6992C78.8354 45.3748 78.6873 43.3776 77.3629 42.2366Z" fill="#E59F6A"/>
<path d="M72.1674 46.9012L67.0128 42.4567C66.4005 41.9286 65.4753 41.9969 64.9467 42.6096C64.4184 43.2223 64.487 44.1473 65.0997 44.6756L70.2452 49.1123L71.2151 47.9873C71.6022 48.3207 72.0352 48.5639 72.4885 48.7277C72.8231 48.1322 72.7045 47.3643 72.1674 46.9012Z" fill="#E59F6A"/>
<path d="M63.9258 52.411C64.2787 51.8123 64.1657 51.0293 63.6207 50.5594L58.9903 46.567C58.3776 46.0389 57.4528 46.1073 56.9243 46.72C56.396 47.3327 56.4645 48.2577 57.0772 48.786L61.7077 52.7784C61.7096 52.7799 61.7116 52.7813 61.7135 52.7828L62.6702 51.6719C63.0516 52.0018 63.4782 52.2465 63.9258 52.411Z" fill="#E59F6A"/>
<path d="M24.6842 40.5962L23.5683 42.0696C22.3533 43.6741 22.6689 45.9598 24.2734 47.1751C25.8779 48.3901 28.1636 48.0745 29.3789 46.47L30.4947 44.9966C31.7097 43.3921 31.3941 41.1063 29.7896 39.8911C28.1851 38.6761 25.8992 38.9917 24.6842 40.5962Z" fill="#F29F5C"/>
<path d="M31.4803 43.6953L29.3789 46.4701C28.1639 48.0746 28.4795 50.3603 30.084 51.5755C31.6885 52.7906 33.9742 52.4749 35.1894 50.8705L37.2908 48.0957C38.5058 46.4912 38.1902 44.2055 36.5857 42.9902C34.981 41.7752 32.6953 42.0908 31.4803 43.6953Z" fill="#F29F5C"/>
<path d="M38.0533 47.0889L35.1894 50.8706C33.9744 52.475 34.29 54.7608 35.8945 55.976C37.499 57.191 39.7847 56.8754 41 55.2709L43.8638 51.4893C45.0789 49.8848 44.7632 47.5991 43.1587 46.3839C41.5543 45.1686 39.2685 45.4845 38.0533 47.0889Z" fill="#F29F5C"/>
<path d="M44.0301 51.2698L41 55.2707C39.785 56.8752 40.1006 59.161 41.7051 60.3762C43.3095 61.5912 45.5953 61.2756 46.8105 59.6711L49.8406 55.6701C51.0556 54.0657 50.74 51.7799 49.1355 50.5647C47.5308 49.3497 45.2451 49.6653 44.0301 51.2698Z" fill="#F29F5C"/>
<path d="M74.3917 9.59991L65.1632 4.40637C64.1788 3.85247 63.0491 3.61145 61.9243 3.71536L47.3529 5.06301C45.5617 5.22863 43.9611 6.2507 43.0574 7.80616L32.7871 25.4834C32.0287 26.7889 32.624 28.4627 34.0363 28.9961L34.4565 29.1547C38.2211 30.5766 42.4726 29.3666 44.9244 26.1758L48.8593 21.0547C48.8593 21.0547 58.3181 32.0065 68.7321 19.2169" fill="#F29F5C"/>
<path d="M99.9885 41.3797L95.1618 2.17072C95.1143 1.78518 94.9157 1.4342 94.6094 1.19514C94.3032 0.956082 93.9147 0.84866 93.529 0.895925L82.2423 2.28537C79.3108 2.64631 77.2196 5.32481 77.5806 8.25605L81.4563 39.7403C81.7899 42.4506 84.1046 44.4426 86.7688 44.4426C86.986 44.4426 87.2061 44.4293 87.427 44.4022L98.7137 43.0127C99.5164 42.9137 100.087 42.1827 99.9885 41.3797Z" fill="#5C9CEE"/>
<path d="M99.9888 41.3797L99.4589 37.0758C99.2187 37.4283 98.8351 37.6803 98.3785 37.7365L86.5471 39.193C86.3154 39.2215 86.0847 39.2353 85.857 39.2353C83.8648 39.2353 82.06 38.1725 81.0615 36.5322L81.4564 39.74C81.79 42.4504 84.1047 44.4423 86.7689 44.4423C86.9861 44.4423 87.2062 44.4291 87.4271 44.4019L98.7138 43.0125C99.5167 42.9136 100.088 42.1826 99.9888 41.3797Z" fill="#3580D3"/>
<path d="M17.7573 2.28495L6.47066 0.895501C6.08453 0.848041 5.69645 0.955659 5.3902 1.19472C5.08395 1.43378 4.88532 1.78476 4.83786 2.1703L0.0111202 41.3795C-0.0877075 42.1824 0.483189 42.9135 1.28592 43.0123L12.5726 44.4018C12.7937 44.4289 13.0134 44.4422 13.2308 44.4422C15.8948 44.4422 18.2097 42.45 18.5433 39.7399L22.419 8.25563C22.78 5.32439 20.6888 2.64589 17.7573 2.28495Z" fill="#ED5575"/>
<path d="M0.0111232 41.3797L0.541004 37.0758C0.781237 37.4283 1.16483 37.6803 1.62147 37.7365L13.4529 39.193C13.6845 39.2215 13.9152 39.2353 14.1429 39.2353C16.1351 39.2353 17.94 38.1725 18.9384 36.5322L18.5435 39.74C18.2099 42.4504 15.8952 44.4423 13.231 44.4423C13.0138 44.4423 12.7937 44.4291 12.5728 44.4019L1.28612 43.0125C0.482996 42.9136 -0.0877045 42.1826 0.0111232 41.3797Z" fill="#CC3A60"/>
<path d="M90.6246 37.9333C92.1885 37.9333 93.4562 36.6655 93.4562 35.1017C93.4562 33.5378 92.1885 32.27 90.6246 32.27C89.0607 32.27 87.793 33.5378 87.793 35.1017C87.793 36.6655 89.0607 37.9333 90.6246 37.9333Z" fill="#EBEEF2"/>
<path d="M9.21688 37.9333C10.7807 37.9333 12.0485 36.6655 12.0485 35.1017C12.0485 33.5378 10.7807 32.27 9.21688 32.27C7.65302 32.27 6.38525 33.5378 6.38525 35.1017C6.38525 36.6655 7.65302 37.9333 9.21688 37.9333Z" fill="#EBEEF2"/>
</svg>
