<svg width="82" height="83" viewBox="0 0 82 83" fill="none" xmlns="http://www.w3.org/2000/svg">
<g clip-path="url(#clip0)">
<path fill-rule="evenodd" clip-rule="evenodd" d="M81.5011 2.498L80.7985 11.5501C80.7429 12.3126 80.2476 12.9725 79.531 13.2389C78.8144 13.5052 78.0083 13.3291 77.4682 12.7881L75.4307 10.7492L61.882 24.3161C59.6847 26.5085 56.1274 26.5085 53.9302 24.3161L47.6589 18.042C47.1102 17.4935 46.2207 17.4935 45.672 18.042L25.0567 38.6657C24.0024 39.7212 22.5718 40.3142 21.08 40.3142C19.5883 40.3142 18.1577 39.7212 17.1034 38.6657L13.6425 35.2034C13.0939 34.6558 12.2055 34.6558 11.657 35.2034L4.7955 42.0536C3.69592 43.1349 1.93249 43.1349 0.832909 42.0536C0.301055 41.5313 0.00144958 40.8171 0.00144958 40.0716C0.00144958 39.3261 0.301055 38.612 0.832909 38.0896L8.67377 30.2319C9.72798 29.1769 11.1583 28.5841 12.6497 28.5841C14.1411 28.5841 15.5714 29.1769 16.6256 30.2319L21.0786 34.6877L42.6902 13.0747C43.7444 12.0197 45.1747 11.427 46.6661 11.427C48.1576 11.427 49.5879 12.0197 50.6421 13.0747L56.9105 19.3418C57.1741 19.6057 57.5317 19.7539 57.9047 19.7539C58.2776 19.7539 58.6353 19.6057 58.8989 19.3418L71.4639 6.77113L69.4264 4.73363C68.8875 4.19499 68.7125 3.39142 68.9786 2.67749C69.2447 1.96355 69.903 1.47055 70.663 1.41602L79.7263 0.709214C80.2084 0.677865 80.6805 0.856745 81.0208 1.19971C81.3611 1.54268 81.5362 2.01615 81.5011 2.498Z" fill="#4FBA6F"/>
<path d="M21.0776 76.5894H4.2155C2.66339 76.5894 1.40515 77.8476 1.40515 79.3997C1.40515 80.9518 2.66339 82.21 4.2155 82.21H21.0776C22.6297 82.21 23.8879 80.9518 23.8879 79.3997C23.8879 77.8476 22.6297 76.5894 21.0776 76.5894Z" fill="#F0C419"/>
<path d="M49.181 76.5894H32.319C30.7669 76.5894 29.5086 77.8476 29.5086 79.3997C29.5086 80.9518 30.7669 82.21 32.319 82.21H49.181C50.7332 82.21 51.9914 80.9518 51.9914 79.3997C51.9914 77.8476 50.7332 76.5894 49.181 76.5894Z" fill="#F0C419"/>
<path d="M49.181 70.9686H32.319C30.7669 70.9686 29.5086 72.2269 29.5086 73.779C29.5086 75.3311 30.7669 76.5893 32.319 76.5893H49.181C50.7332 76.5893 51.9914 75.3311 51.9914 73.779C51.9914 72.2269 50.7332 70.9686 49.181 70.9686Z" fill="#F3D55B"/>
<path d="M49.181 65.348H32.319C30.7669 65.348 29.5086 66.6062 29.5086 68.1583C29.5086 69.7104 30.7669 70.9687 32.319 70.9687H49.181C50.7332 70.9687 51.9914 69.7104 51.9914 68.1583C51.9914 66.6062 50.7332 65.348 49.181 65.348Z" fill="#F0C419"/>
<path d="M77.2845 76.5894H60.4224C58.8703 76.5894 57.6121 77.8476 57.6121 79.3997C57.6121 80.9518 58.8703 82.21 60.4224 82.21H77.2845C78.8366 82.21 80.0948 80.9518 80.0948 79.3997C80.0948 77.8476 78.8366 76.5894 77.2845 76.5894Z" fill="#F0C419"/>
<path d="M40.75 65.3479C47.7345 65.3479 53.3965 59.6859 53.3965 52.7014C53.3965 45.7169 47.7345 40.0548 40.75 40.0548C33.7655 40.0548 28.1034 45.7169 28.1034 52.7014C28.1034 59.6859 33.7655 65.3479 40.75 65.3479Z" fill="#F3D55B"/>
<path d="M77.2845 70.9686H60.4224C58.8703 70.9686 57.6121 72.2269 57.6121 73.779C57.6121 75.3311 58.8703 76.5893 60.4224 76.5893H77.2845C78.8366 76.5893 80.0948 75.3311 80.0948 73.779C80.0948 72.2269 78.8366 70.9686 77.2845 70.9686Z" fill="#F3D55B"/>
<path d="M77.2845 65.348H60.4224C58.8703 65.348 57.6121 66.6062 57.6121 68.1583C57.6121 69.7104 58.8703 70.9687 60.4224 70.9687H77.2845C78.8366 70.9687 80.0948 69.7104 80.0948 68.1583C80.0948 66.6062 78.8366 65.348 77.2845 65.348Z" fill="#F0C419"/>
<path d="M77.2845 59.7272H60.4224C58.8703 59.7272 57.6121 60.9855 57.6121 62.5376C57.6121 64.0897 58.8703 65.3479 60.4224 65.3479H77.2845C78.8366 65.3479 80.0948 64.0897 80.0948 62.5376C80.0948 60.9855 78.8366 59.7272 77.2845 59.7272Z" fill="#F3D55B"/>
<path d="M77.2845 54.1066H60.4224C58.8703 54.1066 57.6121 55.3648 57.6121 56.9169C57.6121 58.469 58.8703 59.7273 60.4224 59.7273H77.2845C78.8366 59.7273 80.0948 58.469 80.0948 56.9169C80.0948 55.3648 78.8366 54.1066 77.2845 54.1066Z" fill="#F0C419"/>
<path d="M68.8534 54.1066C75.8379 54.1066 81.5 48.4445 81.5 41.46C81.5 34.4755 75.8379 28.8135 68.8534 28.8135C61.8689 28.8135 56.2069 34.4755 56.2069 41.46C56.2069 48.4445 61.8689 54.1066 68.8534 54.1066Z" fill="#F3D55B"/>
<path d="M12.6466 76.5893C19.631 76.5893 25.2931 70.9272 25.2931 63.9428C25.2931 56.9583 19.631 51.2962 12.6466 51.2962C5.66205 51.2962 0 56.9583 0 63.9428C0 70.9272 5.66205 76.5893 12.6466 76.5893Z" fill="#F3D55B"/>
<path fill-rule="evenodd" clip-rule="evenodd" d="M40.75 51.2962C40.0682 51.2956 39.4853 50.8057 39.3674 50.1342C39.2494 49.4627 39.6305 48.8035 40.2712 48.5705C40.9119 48.3375 41.6274 48.5981 41.9683 49.1885C42.211 49.6395 42.6798 49.9227 43.1919 49.9277C43.704 49.9327 44.1783 49.6587 44.4298 49.2126C44.6812 48.7665 44.6701 48.2188 44.4006 47.7833C43.8912 46.9285 43.0958 46.2814 42.1552 45.9566V45.6756C42.1552 44.8995 41.526 44.2704 40.75 44.2704C39.9739 44.2704 39.3448 44.8995 39.3448 45.6756V45.9341C37.4105 46.6154 36.2497 48.5925 36.5972 50.6136C36.9447 52.6347 38.6992 54.1105 40.75 54.1066C41.4317 54.1073 42.0147 54.5972 42.1326 55.2687C42.2506 55.9401 41.8695 56.5994 41.2288 56.8324C40.5881 57.0653 39.8726 56.8048 39.5317 56.2144C39.1321 55.5684 38.2915 55.357 37.6338 55.7369C36.9761 56.1169 36.7394 56.9507 37.0994 57.6195C37.6095 58.4749 38.4059 59.122 39.3476 59.4462V59.7273C39.3476 60.5033 39.9767 61.1325 40.7528 61.1325C41.5289 61.1325 42.158 60.5033 42.158 59.7273V59.4687C44.0928 58.7873 45.2537 56.8094 44.9054 54.7879C44.5571 52.7663 42.8013 51.291 40.75 51.2962Z" fill="#B19046"/>
<path fill-rule="evenodd" clip-rule="evenodd" d="M73.069 44.2704C73.069 41.9422 71.1816 40.0549 68.8535 40.0549C68.1717 40.0542 67.5888 39.5643 67.4709 38.8928C67.3529 38.2213 67.734 37.5621 68.3747 37.3291C69.0154 37.0961 69.7309 37.3567 70.0717 37.9471C70.4714 38.593 71.3119 38.8045 71.9696 38.4245C72.6273 38.0446 72.864 37.2108 72.5041 36.5419C71.9953 35.6865 71.1997 35.0392 70.2586 34.7152V34.4342C70.2586 33.6581 69.6295 33.029 68.8535 33.029C68.0774 33.029 67.4483 33.6581 67.4483 34.4342V34.6927C65.514 35.374 64.3531 37.3511 64.7006 39.3722C65.0481 41.3933 66.8027 42.8691 68.8535 42.8652C69.5352 42.8659 70.1181 43.3558 70.2361 44.0273C70.354 44.6987 69.973 45.358 69.3323 45.591C68.6916 45.8239 67.9761 45.5634 67.6352 44.973C67.2356 44.327 66.395 44.1156 65.7373 44.4955C65.0796 44.8755 64.8429 45.7093 65.2028 46.3781C65.7123 47.2341 66.509 47.8814 67.4511 48.2048V48.4859C67.4511 49.2619 68.0802 49.8911 68.8563 49.8911C69.6323 49.8911 70.2614 49.2619 70.2614 48.4859V48.2273C71.9386 47.633 73.062 46.0497 73.069 44.2704Z" fill="#B19046"/>
<path fill-rule="evenodd" clip-rule="evenodd" d="M12.6466 62.5376C11.9648 62.537 11.3819 62.047 11.2639 61.3756C11.146 60.7041 11.527 60.0448 12.1678 59.8119C12.8085 59.5789 13.524 59.8395 13.8648 60.4299C14.1075 60.8809 14.5764 61.1641 15.0885 61.1691C15.6006 61.1741 16.0748 60.9001 16.3263 60.454C16.5778 60.0079 16.5666 59.4602 16.2972 59.0247C15.7878 58.1699 14.9924 57.5228 14.0517 57.198V56.917C14.0517 56.1409 13.4226 55.5118 12.6466 55.5118C11.8705 55.5118 11.2414 56.1409 11.2414 56.917V57.1755C9.3071 57.8568 8.14622 59.8339 8.49373 61.855C8.84124 63.8761 10.5958 65.3519 12.6466 65.348C13.3283 65.3487 13.9112 65.8386 14.0292 66.5101C14.1471 67.1815 13.7661 67.8408 13.1254 68.0737C12.4846 68.3067 11.7691 68.0462 11.4283 67.4557C11.1856 67.0048 10.7168 66.7215 10.2047 66.7165C9.69255 66.7115 9.21827 66.9855 8.9668 67.4316C8.71532 67.8778 8.72648 68.4254 8.99592 68.8609C9.50603 69.7163 10.3025 70.3634 11.2442 70.6876V70.9687C11.2442 71.7447 11.8733 72.3738 12.6494 72.3738C13.4254 72.3738 14.0545 71.7447 14.0545 70.9687V70.7101C15.9893 70.0287 17.1503 68.0508 16.802 66.0293C16.4537 64.0077 14.6979 62.5324 12.6466 62.5376Z" fill="#B19046"/>
</g>
<defs>
<clipPath id="clip0">
<rect width="81.5" height="81.5" fill="white" transform="translate(0 0.710022)"/>
</clipPath>
</defs>
</svg>
