<svg width="100" height="100" viewBox="0 0 100 100" fill="none" xmlns="http://www.w3.org/2000/svg">
<g clip-path="url(#clip0)">
<path d="M22.2115 34.9697H27.2059V25.0271H22.2115C19.466 25.0271 17.2402 27.2529 17.2402 29.9984C17.2402 32.7439 19.466 34.9697 22.2115 34.9697Z" fill="#F9C295"/>
<path d="M71.1896 34.9697H66.1953V25.0271H71.1896C73.9352 25.0271 76.1609 27.2529 76.1609 29.9984C76.1609 32.7439 73.9352 34.9697 71.1896 34.9697Z" fill="#F9C295"/>
<path d="M54.0309 59.6992H39.3705C36.7289 59.6992 34.2184 59.8703 31.9521 60.8809C25.5785 63.7228 21.1357 70.1143 21.1357 77.5436V100H72.2658V77.5436C72.2658 70.1053 67.8123 63.7072 61.4262 60.8705C59.1658 59.8664 56.6635 59.6992 54.0309 59.6992Z" fill="#656D88"/>
<path d="M54.0308 59.6992H48.6987C53.0685 59.6992 57.0792 60.8455 60.2198 63.4084C64.3173 66.7521 66.9337 71.8422 66.9337 77.5434V100H72.2657V77.5436C72.2657 70.1398 67.8532 63.7666 61.5146 60.9102C59.2312 59.8812 56.6978 59.6992 54.0308 59.6992Z" fill="#444966"/>
<path d="M46.7006 0C34.9811 0 25.4805 9.50059 25.4805 21.2201V31.4508C25.4805 43.1703 34.9811 52.6709 46.7006 52.6709C58.4201 52.6709 67.9207 43.1703 67.9207 31.4508V21.2201C67.9207 9.50059 58.4201 0 46.7006 0Z" fill="#F9C295"/>
<path d="M46.7002 0C45.7828 0 44.8789 0.0583984 43.9922 0.171289C54.4328 1.50117 62.5041 10.418 62.5041 21.2201V31.4508C62.5041 42.2529 54.4328 51.1697 43.9922 52.4996C44.8789 52.6127 45.7828 52.6709 46.7002 52.6709C58.4197 52.6709 67.9203 43.1703 67.9203 31.4508V21.2201C67.9203 9.50059 58.4197 0 46.7002 0Z" fill="#E59F6A"/>
<path d="M46.7003 90.1552L61.4237 60.875C59.1634 59.8708 56.6634 59.3083 54.0306 59.3083H39.3702C36.7374 59.3083 34.2374 59.8708 31.9771 60.875L46.7003 90.1552Z" fill="#EBEEF2"/>
<path d="M44.3361 65.2672L42.1314 81.0689L46.7006 90.1555L51.2697 81.0689L49.065 65.2672C51.435 64.326 53.1115 62.0139 53.1115 59.3086H40.29C40.2898 62.0137 41.9662 64.326 44.3361 65.2672Z" fill="#ED5575"/>
<path d="M50.1019 37.9368H46.7009C45.8673 37.9368 45.1919 37.2612 45.1919 36.4278V27.3881C45.1919 26.5545 45.8675 25.8792 46.7009 25.8792C47.5343 25.8792 48.2099 26.5547 48.2099 27.3881V34.9186H50.1019C50.9355 34.9186 51.6109 35.5942 51.6109 36.4276C51.6109 37.2614 50.9355 37.9368 50.1019 37.9368Z" fill="#E59F6A"/>
<path d="M80.7405 74.7322H51.262C50.1468 74.7322 49.2427 75.6363 49.2427 76.7515V97.9808C49.2427 99.096 50.1468 100 51.262 100H80.7403C81.8556 100 82.7597 99.096 82.7597 97.9808V76.7515C82.7599 75.6363 81.856 74.7322 80.7405 74.7322Z" fill="#EBEEF2"/>
<path d="M80.7403 74.7322H75.8013C76.9165 74.7322 77.8206 75.6363 77.8206 76.7515V97.9806C77.8206 99.0958 76.9165 100 75.8013 100H80.7403C81.8556 100 82.7597 99.096 82.7597 97.9806V76.7515C82.7597 75.6363 81.8558 74.7322 80.7403 74.7322Z" fill="#D1D6DE"/>
<path d="M63.0963 89.2499C62.8402 89.2499 62.5809 89.1847 62.3432 89.0476C61.6215 88.6308 61.374 87.7079 61.7908 86.9862L64.4693 82.3466C64.8859 81.6245 65.8086 81.3776 66.5307 81.7942C67.2523 82.211 67.4998 83.1339 67.083 83.8556L64.4045 88.4952C64.1252 88.9792 63.6178 89.2499 63.0963 89.2499Z" fill="#656D88"/>
<path d="M66.2237 93.1399C65.9677 93.1399 65.7081 93.0746 65.4706 92.9375C64.7489 92.5207 64.5015 91.5979 64.9183 90.8762L67.597 86.2366C68.0136 85.5145 68.9368 85.2674 69.6583 85.6842C70.38 86.101 70.6274 87.0239 70.2106 87.7455L67.5319 92.3852C67.2526 92.8694 66.7452 93.1399 66.2237 93.1399Z" fill="#656D88"/>
<path d="M25.4868 20.6863C31.271 20.6826 35.9591 15.9928 35.9591 10.2076C35.9591 7.96387 35.2517 5.88652 34.0507 4.18164C28.9827 7.9502 25.6538 13.9258 25.4868 20.6863Z" fill="#656D88"/>
<path d="M30.9307 7.02207C33.6703 14.8914 44.9947 20.7902 58.5508 20.7902C61.8176 20.7902 64.9539 20.4465 67.8728 19.8164C67.15 8.75137 57.9477 0 46.7 0C40.4406 0 34.8146 2.71094 30.9307 7.02207Z" fill="#444966"/>
<path d="M45.856 0.0185547C45.7108 0.0242188 45.5659 0.0306641 45.4216 0.0392578C45.3433 0.0439453 45.2651 0.0496094 45.1872 0.0550781C45.0522 0.0646484 44.9175 0.0751953 44.7833 0.0871094C44.7042 0.0941406 44.6251 0.101563 44.546 0.10957C44.4101 0.123242 44.2747 0.138477 44.1396 0.154883C44.0927 0.160547 44.0456 0.166211 43.9985 0.17207C54.2415 1.47988 62.2017 10.0902 62.4952 20.6178C64.3513 20.4572 66.1509 20.1881 67.8733 19.8162C67.862 19.6434 67.8487 19.4711 67.8333 19.2994V19.2992C67.8179 19.1277 67.8005 18.9566 67.781 18.7863C67.781 18.7859 67.781 18.7855 67.781 18.7854C67.4108 15.5457 66.3114 12.5275 64.6507 9.89961C64.6505 9.89922 64.6503 9.89902 64.6501 9.89883C64.5663 9.76621 64.481 9.63477 64.3942 9.5043C64.389 9.49629 64.3837 9.48809 64.3782 9.48008C64.2956 9.35586 64.2116 9.23281 64.1265 9.11055C64.1165 9.09629 64.1065 9.08184 64.0966 9.06758C64.0147 8.95039 63.9311 8.83418 63.847 8.71875C63.8331 8.69981 63.8194 8.68106 63.8056 8.66211C63.7237 8.55078 63.6407 8.44043 63.5567 8.33086C63.5397 8.30859 63.5228 8.28633 63.5056 8.26426C63.4233 8.15781 63.3401 8.05234 63.2561 7.94766C63.2364 7.92305 63.2165 7.89824 63.1966 7.87383C63.114 7.77168 63.0302 7.67031 62.9458 7.56992C62.9237 7.54356 62.9015 7.51738 62.8792 7.49121C62.7956 7.39258 62.711 7.29492 62.6255 7.19785C62.6015 7.1707 62.5774 7.14356 62.5534 7.1166C62.4687 7.02129 62.3831 6.92676 62.2966 6.83301C62.271 6.80527 62.2452 6.77774 62.2194 6.7502C62.1331 6.65762 62.0462 6.56563 61.9581 6.47481C61.9313 6.44707 61.9044 6.41973 61.8776 6.39238C61.7897 6.30234 61.7013 6.21289 61.6118 6.12461C61.5839 6.09707 61.5556 6.06973 61.5274 6.04219C61.4378 5.95469 61.3479 5.86758 61.2567 5.78164C61.2282 5.75469 61.1993 5.72832 61.1708 5.70156C61.0788 5.61582 60.9864 5.53027 60.8929 5.44609C60.8649 5.4209 60.8366 5.39629 60.8085 5.37129C60.7136 5.28672 60.6181 5.20234 60.5216 5.11953C60.4946 5.09629 60.4673 5.07363 60.4401 5.05059C60.3413 4.9666 60.2423 4.88301 60.1421 4.80078C60.1183 4.78125 60.094 4.76231 60.0702 4.74277C59.9657 4.65781 59.8608 4.57344 59.7546 4.49043C59.7388 4.47793 59.7226 4.46602 59.7065 4.45352C59.0894 3.97402 58.4448 3.52773 57.7759 3.11738C57.7614 3.10859 57.7474 3.09941 57.7329 3.09043C57.6302 3.02793 57.5265 2.96699 57.4226 2.90605C57.3817 2.88223 57.3415 2.85762 57.3005 2.83379C57.2079 2.78027 57.1144 2.72832 57.0208 2.67617C56.9675 2.64648 56.9145 2.61602 56.861 2.58691C56.7735 2.53906 56.6851 2.49258 56.5966 2.4459C56.5362 2.41406 56.4763 2.38184 56.4157 2.35039C56.3308 2.30664 56.245 2.26406 56.1595 2.22129C56.0944 2.18887 56.0296 2.15605 55.964 2.12422C55.8806 2.08379 55.7968 2.04453 55.7128 2.00508C55.644 1.97266 55.5753 1.94023 55.506 1.90859C55.4239 1.87109 55.3413 1.83477 55.2585 1.79824C55.1864 1.76641 55.1145 1.73457 55.0419 1.70352C54.9606 1.66875 54.8786 1.63477 54.7968 1.60098C54.7222 1.57012 54.6474 1.53926 54.5724 1.50918C54.4915 1.47676 54.4101 1.44531 54.3286 1.41387C54.2517 1.38418 54.1747 1.35469 54.0974 1.32598C54.0165 1.2959 53.9351 1.26641 53.8538 1.2373C53.7749 1.20918 53.696 1.18125 53.6167 1.15391C53.536 1.12617 53.455 1.09883 53.3739 1.07207C53.2931 1.04531 53.2118 1.01895 53.1306 0.993164C53.0499 0.967383 52.9688 0.942383 52.8878 0.917578C52.8052 0.892383 52.7226 0.867969 52.6396 0.84375C52.5589 0.820313 52.478 0.797266 52.397 0.774609C52.3124 0.751172 52.2278 0.72832 52.1429 0.705859C52.0622 0.68457 51.9815 0.663477 51.9005 0.642969C51.8146 0.621289 51.7284 0.600391 51.6421 0.579883C51.5612 0.560547 51.4804 0.541406 51.3993 0.523047C51.3118 0.50332 51.2241 0.484375 51.1362 0.46582C51.0554 0.448633 50.9747 0.431445 50.8935 0.415039C50.8044 0.39707 50.7149 0.380469 50.6257 0.363672C50.545 0.348633 50.4644 0.333398 50.3833 0.319141C50.2923 0.30332 50.2009 0.288477 50.1095 0.273828C50.0294 0.260938 49.9495 0.247656 49.869 0.235547C49.7755 0.221484 49.6813 0.208984 49.5874 0.196094C49.5085 0.185352 49.4298 0.174219 49.3507 0.164258C49.2544 0.152344 49.1575 0.141797 49.0608 0.131055C48.9831 0.122461 48.9056 0.113281 48.8274 0.105469C48.728 0.0955078 48.6282 0.0873047 48.5284 0.0789063C48.4526 0.0724609 48.3771 0.0652344 48.3009 0.0595703C48.196 0.0517578 48.0907 0.0458984 47.9854 0.0396484C47.9138 0.0353516 47.8425 0.0300781 47.7706 0.0265625C47.654 0.0207031 47.5368 0.0171875 47.4196 0.0132813C47.3587 0.0111328 47.2981 0.00820313 47.237 0.00664063C47.0589 0.00234375 46.88 0 46.7007 0C46.4864 0 46.2731 0.00390625 46.0606 0.0101563C45.9921 0.0121094 45.9241 0.0158203 45.856 0.0185547Z" fill="#2E344C"/>
<path d="M33.9428 81.1632H27.5041C26.6705 81.1632 25.9951 80.4876 25.9951 79.6542C25.9951 78.8208 26.6707 78.1453 27.5041 78.1453H33.9428C34.7764 78.1453 35.4518 78.8208 35.4518 79.6542C35.4518 80.4876 34.7762 81.1632 33.9428 81.1632Z" fill="#444966"/>
</g>
<defs>
<clipPath id="clip0">
<rect width="100" height="100" fill="white"/>
</clipPath>
</defs>
</svg>
