<svg width="100" height="100" viewBox="0 0 100 100" fill="none" xmlns="http://www.w3.org/2000/svg">
<path d="M45.3711 42.7429L32.8789 33.0372L35.602 27.321C37.6613 22.9981 34.744 18.2185 29.0859 16.6451L21.7258 14.5986C17.7758 13.5003 13.4084 15.0562 11.9708 18.0739L0.527639 42.0938C0.350112 42.4664 0.217286 42.8495 0.128906 43.2386L24.7563 50.0869L29.3296 40.487L38.692 47.7609L45.3711 42.7429Z" fill="#AC7FDC"/>
<path d="M99.8711 43.2384C99.7827 42.8494 99.6499 42.4665 99.4726 42.0942L88.0292 18.0735C86.5916 15.0556 82.2239 13.4997 78.2742 14.5982L70.9141 16.6448C65.256 18.2181 62.3387 22.998 64.398 27.3206L67.1212 33.0369L54.6289 42.7427L61.308 47.7606L70.6701 40.4867L75.2437 50.0867L99.8711 43.2384Z" fill="#B6E446"/>
<path d="M93.3585 92.8435L92.3169 45.3391L75.2432 50.0868L78.9321 92.8435H93.3585Z" fill="#30569F"/>
<path d="M99.8704 43.2388L84.166 47.6059L87.6228 92.8435H99.9999V44.3816C99.9999 43.9979 99.9562 43.6154 99.8704 43.2388Z" fill="#4172CA"/>
<path d="M74.8257 100H90.6333V92.8435H74.8257C73.2091 92.8435 71.8984 93.8448 71.8984 95.0799V97.7636C71.8984 98.9987 73.2091 100 74.8257 100Z" fill="#8D562F"/>
<path d="M84.1927 100H98.2794C99.2296 100 100 99.4114 100 98.6855V92.8435H84.1924C82.5758 92.8435 81.2651 93.8448 81.2651 95.0799V97.7636C81.2654 98.9987 82.5758 100 84.1927 100V100Z" fill="#C17E4E"/>
<path d="M99.4719 42.094L88.0285 18.0734C86.5909 15.0556 82.2232 13.4997 78.2734 14.5982L72.2217 16.281C76.1717 15.1827 80.5391 16.7386 81.9767 19.7562L93.9479 44.8849L99.8701 43.238C99.782 42.8491 99.6492 42.4662 99.4719 42.094V42.094Z" fill="#AAD541"/>
<path d="M69.3426 16.5499C75.3244 16.5499 80.1736 12.8451 80.1736 8.27495C80.1736 3.70482 75.3244 0 69.3426 0C63.3609 0 58.5117 3.70482 58.5117 8.27495C58.5117 12.8451 63.3609 16.5499 69.3426 16.5499Z" fill="#F1D0A4"/>
<path d="M70.8584 0.0822754C72.1391 0.960463 73.1647 2.08415 73.7943 3.40592C75.8401 7.70046 72.942 12.4489 67.3209 14.0121C65.5908 14.4931 63.8048 14.6151 62.1011 14.4301C64.9816 16.4053 69.1562 17.1341 73.0472 16.0522C78.6683 14.4892 81.5664 9.74059 79.5207 5.44605C78.1048 2.47329 74.6904 0.498536 70.8584 0.0822754V0.0822754Z" fill="#EDBB87"/>
<path d="M51.3993 50.3544C49.5548 48.9688 49.53 46.7032 51.3436 45.2943L54.6275 42.7429L61.3065 47.7607L58.0227 50.312C56.2091 51.721 53.2438 51.7399 51.3993 50.3544V50.3544Z" fill="#F1D0A4"/>
<path d="M6.6416 92.8435L7.68326 45.3391L24.7567 50.0868L21.0677 92.8435H6.6416Z" fill="#30569F"/>
<path d="M0.129505 43.2388C0.0439347 43.6156 0.000255434 43.9979 0 44.3818V92.8435H12.3771L15.8339 47.6059L0.129505 43.2388Z" fill="#4172CA"/>
<path d="M25.175 100H9.36768V92.8435H25.1753C26.7919 92.8435 28.1025 93.8448 28.1025 95.0799V97.7636C28.1023 98.9987 26.7916 100 25.175 100Z" fill="#8D562F"/>
<path d="M15.8083 100H1.72159C0.771368 100 0.000976562 99.4114 0.000976562 98.6855V92.8435H15.8086C17.4252 92.8435 18.7358 93.8448 18.7358 95.0799V97.7636C18.7356 98.9987 17.4249 100 15.8083 100Z" fill="#C17E4E"/>
<path d="M29.9972 23.7124L28.437 27.04L29.4904 30.1476C29.5678 30.3756 29.7221 30.5842 29.9385 30.752L32.8798 33.0373L35.603 27.321C37.6519 23.0202 34.7734 18.268 29.1716 16.6704C30.7431 18.7332 31.1492 21.294 29.9972 23.7124V23.7124Z" fill="#9C66D5"/>
<path d="M24.0541 36.3872L18.4526 48.3335L24.7573 50.0867L29.3308 40.4869L24.0541 36.3872Z" fill="#9C66D5"/>
<path d="M30.6571 16.5499C36.6389 16.5499 41.488 12.8451 41.488 8.27495C41.488 3.70482 36.6389 0 30.6571 0C24.6753 0 19.8262 3.70482 19.8262 8.27495C19.8262 12.8451 24.6753 16.5499 30.6571 16.5499Z" fill="#F1D0A4"/>
<path d="M35.7001 0.954346C37.0689 2.94585 37.3767 5.35401 36.2904 7.63415C34.2446 11.9286 28.0291 14.1428 22.4081 12.5798C21.9419 12.4503 21.4967 12.2969 21.0693 12.1255C22.2786 13.8846 24.3159 15.3186 26.9525 16.0516C32.5736 17.6147 38.7888 15.4003 40.8348 11.1059C42.7109 7.16754 40.4271 2.84926 35.7001 0.954346V0.954346Z" fill="#EDBB87"/>
<path d="M29.3302 40.4868L22.269 35.0005C21.5479 34.4406 21.0324 33.7437 20.7757 32.9858L17.5902 23.5882C17.4625 23.2114 16.9023 23.0295 16.4574 23.2192C15.5789 23.5939 14.9002 24.2291 14.6226 25.0304C14.4479 25.5349 14.4726 26.0678 14.644 26.5729L17.0666 33.7195C17.4929 34.9771 18.3448 36.1267 19.5371 37.0529L27.8788 43.5339L29.3302 40.4868Z" fill="#8758B8"/>
<path d="M27.5762 21.593C27.0755 21.5883 26.7156 21.9642 26.841 22.3346L29.4891 30.1471C29.5662 30.3748 29.7213 30.584 29.9371 30.7515L32.8785 33.0368L34.3301 29.9894L33.0588 29.0017L31.2912 23.7867C30.8472 22.4766 29.3011 21.5928 27.5854 21.5928C27.5825 21.593 27.5792 21.593 27.5762 21.593V21.593Z" fill="#8758B8"/>
<path d="M70.6699 40.4868L77.7314 35.0005C78.4525 34.4406 78.9679 33.7437 79.2247 32.9858L82.4102 23.5882C82.5379 23.2114 83.098 23.0295 83.543 23.2192C84.4215 23.5939 85.1001 24.2291 85.3778 25.0304C85.5525 25.5349 85.5277 26.0678 85.3563 26.5729L82.9338 33.7195C82.5075 34.9771 81.6556 36.1267 80.4632 37.0529L72.1216 43.5339L70.6699 40.4868Z" fill="#9DC53D"/>
<path d="M72.423 21.593C72.9239 21.5883 73.2835 21.9642 73.1581 22.3346L70.51 30.1471C70.4328 30.3748 70.2778 30.584 70.062 30.7515L67.1206 33.0368L65.6689 29.9894L66.9403 29.0017L68.7079 23.7867C69.1518 22.4766 70.698 21.5928 72.4138 21.5928C72.4168 21.593 72.4199 21.593 72.423 21.593V21.593Z" fill="#9DC53D"/>
<path d="M48.6007 50.3544C50.4452 48.9688 50.47 46.7032 48.6564 45.2943L45.3725 42.7429L38.6934 47.7607L41.9772 50.312C43.7911 51.721 46.7564 51.7399 48.6007 50.3544V50.3544Z" fill="#F1D0A4"/>
<path d="M14.2962 92.8431L16.6909 61.5059C16.7525 60.6989 15.9463 60.0065 14.8901 59.9593C13.8344 59.9123 12.9273 60.5282 12.8658 61.3351L10.458 92.8429H14.2962V92.8431Z" fill="#3A67C1"/>
<path d="M85.7036 92.8431L83.309 61.5059C83.2474 60.6989 84.0536 60.0065 85.1098 59.9593C86.1655 59.9123 87.0725 60.5282 87.1341 61.3351L89.5417 92.8429H85.7036V92.8431Z" fill="#3A67C1"/>
</svg>
