<svg width="82" height="83" viewBox="0 0 82 83" fill="none" xmlns="http://www.w3.org/2000/svg">
<g clip-path="url(#clip0)">
<path d="M1.47829 52.0417C1.38438 52.0417 1.29412 52.0394 1.20753 52.0355C0.53293 52.0047 0 51.4538 0 50.7786V50.7727C0 50.0881 0.547893 49.5386 1.2322 49.5153C2.40105 49.4755 4.2012 49.0518 5.72932 47.1358C5.81496 47.0285 5.89296 46.9214 5.96411 46.815C3.37809 46.2595 1.81989 45.3759 1.21374 44.1268C0.854472 43.3866 0.667436 42.1858 1.81575 40.6685C2.60751 39.6221 3.74898 39.113 4.94807 39.2735C6.46982 39.4764 7.90418 40.7293 8.6025 42.4652C8.9191 43.252 9.06443 44.063 9.04342 44.8665C9.7688 44.9417 10.5063 44.9891 11.2189 45.0047C11.8768 45.019 12.439 45.5352 12.447 46.1933C12.4553 46.8765 11.9024 47.4223 11.2204 47.4127C11.1572 47.4115 9.99404 47.387 8.49044 47.2171C8.26488 47.7093 7.97151 48.1854 7.61161 48.6367C5.3309 51.4962 2.95722 52.0417 1.47829 52.0417ZM4.50842 41.6508C4.30276 41.6508 4.03057 41.7305 3.73513 42.1208C3.54873 42.3673 3.25473 42.8187 3.37936 43.0756C3.66032 43.6552 4.95492 44.1529 6.62088 44.4985C6.59143 44.0019 6.46584 43.6038 6.36906 43.3634C5.95822 42.3424 5.18302 41.7334 4.62955 41.6595C4.59247 41.6545 4.55188 41.6508 4.50842 41.6508Z" fill="#E8679C"/>
<path d="M79.1771 45.1634L75.7896 44.0783C74.979 43.8186 74.3494 43.1786 74.0941 42.3666C70.1958 29.9707 55.7204 24.278 41.1498 24.278C24.1032 24.278 10.2842 32.0677 10.2842 49.2702C10.2842 59.1846 15.147 66.1288 22.6599 70.1393C22.8447 70.238 22.9762 70.4133 23.0158 70.6189L24.699 79.3615C24.8548 80.1851 25.5746 80.7814 26.4129 80.7814H32.0967C32.9349 80.7814 33.6546 80.1851 33.8105 79.3615L34.7306 74.5008C34.7984 74.1422 35.1327 73.9006 35.4951 73.9427C37.3284 74.1556 39.2183 74.2624 41.1498 74.2624C43.7315 74.2624 46.3101 74.0717 48.8276 73.6912C49.1976 73.6354 49.5462 73.8786 49.6159 74.2461L50.5842 79.3615C50.74 80.1851 51.4598 80.7814 52.298 80.7814H57.9818C58.8201 80.7814 59.5397 80.1851 59.6957 79.3615L61.444 70.1049C61.4835 69.8959 61.6178 69.7178 61.8066 69.6198C66.2682 67.3 69.9593 64.1087 72.3133 60.0402C72.6271 59.4981 73.1231 59.0848 73.7197 58.8938L79.1776 57.1456C80.5612 56.7024 81.5 55.4159 81.5 53.9631V48.3458C81.4995 46.893 80.5609 45.6065 79.1771 45.1634Z" fill="#FF7BAC"/>
<path d="M81.0741 46.719C80.9268 46.455 80.7458 46.2113 80.5333 45.9963C80.5287 45.9917 80.5247 45.9866 80.5201 45.9821C80.1524 45.6144 79.6961 45.3296 79.1773 45.1635L76.6659 44.3591V47.3133C76.6659 50.9835 74.3274 54.2457 70.8518 55.4244C69.2713 55.9306 67.9047 56.9322 66.9033 58.2558C65.6772 59.8765 64.2202 61.333 62.5783 62.6255C60.6425 64.1493 59.3368 66.3301 58.9635 68.7652C58.6973 70.5017 58.4912 72.3544 58.3597 73.6673C58.2587 74.6771 57.4098 75.4461 56.395 75.4461H52.2979C51.4597 75.4461 50.74 74.8498 50.584 74.0262L49.6157 68.9109C49.5462 68.5433 49.1976 68.2999 48.8276 68.356C46.3102 68.7364 43.7317 68.9271 41.1498 68.9271C39.2182 68.9271 37.3284 68.8203 35.4951 68.6075C35.1325 68.5654 34.7984 68.8071 34.7304 69.1657L33.8104 74.0264C33.6546 74.85 32.9347 75.4463 32.0965 75.4463H26.4127C25.5745 75.4463 24.8548 74.85 24.6988 74.0264L23.0157 65.2838C22.976 65.0782 22.8446 64.9029 22.6598 64.8042C15.8327 61.1597 11.1951 55.0922 10.4049 46.5755C10.4049 46.5757 10.4049 46.5759 10.4049 46.576C10.3861 46.785 10.3696 46.9956 10.3551 47.2076C10.3548 47.2118 10.3546 47.2159 10.3543 47.2202C10.3529 47.2411 10.3516 47.2621 10.3503 47.2831C10.3377 47.4736 10.3267 47.6654 10.3177 47.8584C10.314 47.9384 10.3115 48.0194 10.3084 48.1C10.3027 48.2471 10.297 48.3942 10.2933 48.5428C10.2877 48.7838 10.2841 49.0261 10.2841 49.2708C10.2841 50.5101 10.36 51.703 10.5077 52.8496C10.6886 54.2543 10.9781 55.5886 11.3662 56.8543C11.3874 56.9236 11.4095 56.9922 11.4313 57.061C11.4853 57.2311 11.5413 57.4008 11.5992 57.5697C11.6223 57.637 11.6452 57.7047 11.6689 57.7715C11.8286 58.2222 12.0013 58.6636 12.1868 59.0956C12.2065 59.1414 12.2261 59.1874 12.246 59.233C12.3373 59.442 12.4314 59.6492 12.5288 59.8539C12.5449 59.8878 12.5618 59.9212 12.578 59.955C12.6687 60.1433 12.7625 60.3302 12.8586 60.5159C12.8752 60.5478 12.8913 60.5799 12.9078 60.6118C13.0126 60.8111 13.1205 61.008 13.231 61.203C13.255 61.2453 13.2794 61.2875 13.3035 61.3297C13.6612 61.9509 14.048 62.5499 14.4625 63.1263C14.5022 63.1814 14.5426 63.236 14.5827 63.2906C14.6833 63.4276 14.7855 63.5636 14.8893 63.6982C14.9302 63.7512 14.9708 63.8044 15.012 63.8569C15.1524 64.0354 15.2946 64.2124 15.4404 64.3862C15.4416 64.3878 15.4431 64.3894 15.4443 64.391C15.5903 64.565 15.7399 64.7359 15.8913 64.9053C15.9372 64.9567 15.984 65.0073 16.0303 65.0583C16.1433 65.1824 16.2579 65.3053 16.3738 65.4268C16.4206 65.4758 16.4671 65.5251 16.5143 65.5737C16.673 65.7372 16.8337 65.899 16.9976 66.0579C16.9979 66.0582 16.9984 66.0587 16.9987 66.059C17.1815 66.236 17.3674 66.4102 17.5565 66.5814C17.9345 66.924 18.3252 67.2549 18.7277 67.5744C19.1303 67.8939 19.5448 68.2019 19.9709 68.4984C20.1839 68.6468 20.3997 68.7921 20.6184 68.9346C20.8154 69.0629 21.0151 69.1882 21.2165 69.3118C21.2744 69.3475 21.3328 69.3823 21.3911 69.4175C21.5433 69.5094 21.6962 69.5996 21.85 69.6886C21.911 69.7238 21.9718 69.7593 22.0331 69.794C22.2402 69.9115 22.4485 70.0273 22.6598 70.14C22.7059 70.1647 22.7487 70.1942 22.7877 70.2277C22.8228 70.258 22.8535 70.2924 22.8817 70.3285C22.8901 70.3392 22.8973 70.3505 22.9049 70.3618C22.9242 70.3898 22.9413 70.4191 22.9563 70.4498C22.9624 70.4621 22.9686 70.474 22.9738 70.4866C22.9916 70.5294 23.0066 70.5735 23.0155 70.6198L24.6987 79.3624C24.7181 79.4654 24.7464 79.5647 24.7827 79.6599C24.8009 79.7075 24.8209 79.754 24.8429 79.7993C24.8649 79.8447 24.8887 79.8888 24.9144 79.9318C24.94 79.9747 24.9674 80.0164 24.9965 80.0567C25.0256 80.0973 25.0565 80.1365 25.089 80.1742C25.1258 80.217 25.1649 80.2573 25.2055 80.2961C25.2184 80.3084 25.2319 80.3198 25.245 80.3318C25.2743 80.3582 25.3042 80.3837 25.3351 80.408C25.3507 80.4203 25.3664 80.4322 25.3823 80.444C25.4142 80.4672 25.4468 80.4894 25.4801 80.5104C25.4951 80.5199 25.5099 80.5298 25.5251 80.5389C25.5734 80.5675 25.6229 80.5944 25.674 80.6183C25.6748 80.6186 25.6754 80.6189 25.6762 80.6193C25.7273 80.6431 25.78 80.6638 25.8335 80.6826C25.8503 80.6885 25.8677 80.6934 25.8847 80.6988C25.9228 80.7109 25.9614 80.7221 26.0006 80.7315C26.0203 80.7363 26.0402 80.7407 26.0601 80.7449C26.0998 80.753 26.1399 80.7595 26.1803 80.7649C26.1986 80.7675 26.2168 80.7703 26.2351 80.7722C26.2933 80.7781 26.3522 80.7819 26.4118 80.7821C26.4121 80.7821 26.4124 80.7821 26.4127 80.7821H32.0965C32.3585 80.7821 32.6087 80.7238 32.834 80.6186C32.9241 80.5766 33.0102 80.5269 33.0912 80.4706C33.1724 80.4142 33.2486 80.351 33.3192 80.2818C33.4249 80.178 33.5177 80.0604 33.5945 79.9316C33.6971 79.7598 33.7712 79.5682 33.8102 79.3622L34.7303 74.5015V74.5014C34.7379 74.461 34.75 74.4226 34.764 74.3855C34.7682 74.3744 34.7731 74.364 34.7779 74.3532C34.7897 74.3264 34.8027 74.3008 34.8175 74.2761C34.8234 74.2663 34.829 74.2564 34.8353 74.2469C34.8568 74.2149 34.8799 74.1841 34.9062 74.1564C34.9775 74.081 35.0665 74.025 35.1639 73.9875C35.1733 73.9839 35.1825 73.9804 35.1921 73.9772C35.2155 73.9694 35.2389 73.9626 35.2632 73.9571C35.2817 73.953 35.3005 73.9503 35.3194 73.9476C35.3377 73.9451 35.3555 73.9419 35.3742 73.9409C35.4138 73.9385 35.4541 73.9387 35.4948 73.9435C35.8003 73.979 36.108 74.0103 36.4166 74.0399C36.4938 74.0474 36.5712 74.0546 36.6485 74.0616C36.957 74.0896 37.2666 74.1158 37.578 74.138C37.5796 74.1381 37.581 74.1381 37.5826 74.1383C37.894 74.1604 38.2072 74.1786 38.5213 74.1948C38.6004 74.1989 38.6795 74.2028 38.7588 74.2066C39.0743 74.2214 39.3906 74.2343 39.7088 74.2432C40.1861 74.2566 40.6665 74.2633 41.1493 74.2633C41.7948 74.2633 42.4399 74.2513 43.0841 74.2276C43.414 74.2153 43.7435 74.1999 44.0726 74.1814C44.1062 74.1795 44.1395 74.1768 44.1731 74.1749C44.472 74.1576 44.7708 74.1383 45.0689 74.1157C45.0759 74.1152 45.0828 74.1144 45.0898 74.1139C45.7437 74.0641 46.3954 74.0022 47.044 73.9279C47.0461 73.9277 47.048 73.9274 47.0499 73.9271C47.3466 73.893 47.6425 73.8567 47.938 73.8177C48.0808 73.7988 48.2229 73.7774 48.3652 73.7574C48.5219 73.7353 48.679 73.7146 48.8351 73.6908C49.1517 73.6429 49.4505 73.8211 49.571 74.1049C49.5726 74.1085 49.575 74.1117 49.5766 74.1155C49.5934 74.1572 49.6065 74.2012 49.6152 74.247L50.0993 76.8047L50.5834 79.3624C50.7392 80.186 51.459 80.7823 52.2973 80.7823H57.981C57.9814 80.7823 57.9817 80.7823 57.982 80.7823C58.0417 80.7823 58.1004 80.7784 58.1587 80.7724C58.1772 80.7705 58.1951 80.7674 58.2134 80.7651C58.2539 80.7597 58.294 80.7531 58.3336 80.745C58.3535 80.7409 58.3734 80.7364 58.393 80.7316C58.4322 80.7221 58.4708 80.7111 58.5089 80.6988C58.5259 80.6934 58.5433 80.6885 58.5601 80.6826C58.6139 80.6637 58.6668 80.6428 58.718 80.6189C58.7184 80.6188 58.7185 80.6186 58.7188 80.6186C58.7701 80.5946 58.8198 80.5675 58.8683 80.5389C58.8836 80.5298 58.8982 80.5199 58.9134 80.5104C58.9468 80.4892 58.9794 80.4672 59.0112 80.4438C59.0272 80.4322 59.0428 80.4203 59.0582 80.4082C59.0892 80.3838 59.1192 80.3582 59.1486 80.3318C59.1618 80.3198 59.1752 80.3085 59.1881 80.2963C59.2287 80.2574 59.2678 80.217 59.3046 80.1744C59.3189 80.1576 59.3318 80.1396 59.3455 80.1223C59.3936 80.0618 59.4391 79.9989 59.4791 79.9319C59.5303 79.8461 59.5744 79.7552 59.6107 79.66C59.647 79.5649 59.6752 79.4655 59.6948 79.3625L60.0779 77.3341L60.476 75.2261L60.7258 73.9041L61.443 70.1058L61.5073 69.7652C61.625 69.7068 61.6726 69.6832 61.7904 69.6249C61.7948 69.6264 61.7975 69.6257 61.7999 69.6245C61.802 69.6233 61.8036 69.6216 61.8056 69.6206C61.9421 69.5498 62.0753 69.4755 62.2101 69.403C62.3511 69.3271 62.4938 69.2529 62.6332 69.1754C62.7542 69.1081 62.872 69.0376 62.9917 68.969C63.1421 68.8827 63.294 68.7977 63.4425 68.7093C63.5647 68.6364 63.6838 68.5605 63.8046 68.4862C63.9471 68.3986 64.0911 68.3125 64.2315 68.2231C64.3576 68.1427 64.4802 68.0591 64.6045 67.9771C64.7364 67.8902 64.8701 67.8047 65.0004 67.7161C65.1232 67.6322 65.2428 67.545 65.3639 67.4595C65.4919 67.3692 65.6215 67.2807 65.7475 67.1887C65.865 67.1029 65.9788 67.0139 66.0945 66.9265C66.2208 66.8314 66.3488 66.7378 66.4728 66.6407C66.5851 66.5528 66.6937 66.4617 66.8043 66.3723C66.9278 66.2725 67.0533 66.1741 67.1746 66.0724C67.2863 65.9788 67.3941 65.8818 67.5039 65.7865C67.6203 65.6856 67.7385 65.5863 67.8527 65.4834C67.9592 65.3876 68.0617 65.2884 68.1664 65.191C68.2798 65.0855 68.3952 64.9814 68.5063 64.8739C68.6078 64.7757 68.7051 64.6743 68.8047 64.5745C68.9147 64.4644 69.0265 64.356 69.1341 64.2439C69.232 64.1419 69.3257 64.0367 69.4215 63.9332C69.5263 63.82 69.6331 63.7084 69.7354 63.5935C69.8289 63.4886 69.9179 63.3804 70.0091 63.2739C70.1094 63.1569 70.2117 63.0413 70.3096 62.9224C70.3986 62.8143 70.4829 62.7029 70.5699 62.5931C70.6654 62.4724 70.7629 62.3533 70.8557 62.2308C70.9411 62.1181 71.0218 62.0022 71.1049 61.8879C71.1943 61.7649 71.286 61.6436 71.3728 61.5186C71.4539 61.4018 71.5303 61.2817 71.6093 61.1635C71.693 61.0377 71.7791 60.9136 71.8603 60.7859C71.9611 60.6275 72.0532 60.4632 72.154 60.3049C72.2139 60.2109 72.2697 60.1148 72.3258 60.0185C72.6327 59.49 73.117 59.0876 73.6992 58.9012L73.7189 58.8949H73.719L76.5034 58.003L79.1768 57.1466C80.5604 56.7034 81.4992 55.417 81.4992 53.9641V48.3467C81.4992 47.8504 81.3875 47.3746 81.1879 46.944C81.1529 46.867 81.1148 46.7922 81.0741 46.719Z" fill="#E8679C"/>
<path d="M54.3897 27.312C54.5626 26.4914 55.1302 25.8092 55.8927 25.4601C58.8222 24.1192 66.2861 20.8925 68.2049 21.8975C70.6077 23.1562 69.349 36.7437 65.6876 38.8176C62.151 40.8209 51.8889 39.181 54.3897 27.312Z" fill="#E8679C"/>
<path d="M65.5148 48.9594C63.3449 48.9594 61.5795 47.1939 61.5795 45.024C61.5795 44.3593 62.1183 43.8204 62.783 43.8204C63.4477 43.8204 63.9866 44.3593 63.9866 45.024C63.9866 45.8667 64.6722 46.5521 65.5147 46.5521C66.3574 46.5521 67.043 45.8667 67.043 45.024C67.043 44.3593 67.5818 43.8204 68.2465 43.8204C68.9112 43.8204 69.4501 44.3593 69.4501 45.024C69.4504 47.1939 67.6849 48.9594 65.5148 48.9594Z" fill="#E8679C"/>
<path d="M47.8225 34.2921C47.6959 34.2921 47.5673 34.2721 47.4407 34.2297C40.8768 32.0353 33.6468 32.0353 27.0829 34.2297C26.4525 34.4403 25.7705 34.1003 25.5599 33.4698C25.3491 32.8393 25.6893 32.1574 26.3198 31.9466C33.376 29.5876 41.1479 29.5876 48.2042 31.9466C48.8347 32.1574 49.1748 32.8393 48.9641 33.4698C48.7955 33.9738 48.3259 34.2921 47.8225 34.2921Z" fill="#E8679C"/>
<path d="M37.2622 32.5857C45.6701 32.5857 52.486 25.7698 52.486 17.3619C52.486 8.95395 45.6701 2.138 37.2622 2.138C28.8543 2.138 22.0383 8.95395 22.0383 17.3619C22.0383 25.7698 28.8543 32.5857 37.2622 32.5857Z" fill="#FFB125"/>
<path d="M67.186 23.472C65.5152 23.472 61.4692 24.8489 56.6273 27.0654C56.3629 27.1864 56.1721 27.4148 56.117 27.6761C55.4114 31.0249 55.7888 33.7202 57.2087 35.4702C57.3747 35.6748 57.5568 35.8674 57.7529 36.0476C57.9813 36.2574 58.3495 36.1397 58.4254 35.8392C60.1081 29.1744 68.2748 23.472 67.186 23.472Z" fill="#FF7BAC"/>
<path d="M48.2134 6.78857L26.688 28.3142C32.6471 34.0715 42.1447 34.0099 48.027 28.1276C53.9093 22.2453 53.9707 12.7477 48.2134 6.78857Z" fill="#FF901D"/>
<path d="M36.9168 24.7387C34.3241 24.6968 32.5677 23.2959 32.5677 22.2714C32.5677 21.7695 33.0067 21.0795 33.5294 21.0795C34.2195 21.0795 34.7839 22.5431 36.9168 22.7104V17.7967C35.035 17.1277 32.944 16.3749 32.944 13.6985C32.944 11.0639 34.9304 10.0185 36.9168 9.8093V9.20299C36.9168 8.95212 37.1676 8.72211 37.5232 8.72211C37.8368 8.72211 38.1506 8.95212 38.1506 9.20299V9.76759C39.5724 9.80946 41.5798 10.2485 41.5798 11.2731C41.5798 11.6704 41.287 12.4649 40.6597 12.4649C40.158 12.4649 39.6142 11.7958 38.1506 11.6913V15.9358C39.9697 16.6048 41.9561 17.5249 41.9561 20.3686C41.9561 22.9404 40.4088 24.3622 38.1506 24.676V25.3868C38.1506 25.6377 37.837 25.8677 37.5232 25.8677C37.1678 25.8677 36.9168 25.6377 36.9168 25.3868V24.7387ZM37.0422 15.5386V11.7331C35.8713 11.8794 35.035 12.4022 35.035 13.4895C35.035 14.6813 35.934 15.1205 37.0422 15.5386ZM38.025 18.2568V22.6686C39.154 22.4594 39.8649 21.7904 39.8649 20.5984C39.8649 19.2814 39.0496 18.6959 38.025 18.2568Z" fill="#DD7219"/>
</g>
<defs>
<clipPath id="clip0">
<rect width="81.5" height="81.5" fill="white" transform="translate(0 0.710022)"/>
</clipPath>
</defs>
</svg>
