<svg width="21" height="21" viewBox="0 0 21 21" fill="none" xmlns="http://www.w3.org/2000/svg">
<path d="M17.2969 14.6025C16.4897 14.6025 15.7449 14.8662 15.1615 15.3065L9.29355 11.3541C9.39181 10.852 9.39181 10.3375 9.29355 9.83535L15.1615 5.88291C15.7449 6.32324 16.4897 6.58691 17.2969 6.58691C19.1717 6.58691 20.6953 5.16836 20.6953 3.42285C20.6953 1.67734 19.1717 0.258789 17.2969 0.258789C15.4221 0.258789 13.8984 1.67734 13.8984 3.42285C13.8984 3.72871 13.9438 4.02139 14.0315 4.30088L8.45811 8.0582C7.63115 7.03779 6.31709 6.37598 4.83594 6.37598C2.33242 6.37598 0.304688 8.26387 0.304688 10.5947C0.304688 12.9256 2.33242 14.8135 4.83594 14.8135C6.31709 14.8135 7.63115 14.1517 8.45811 13.1313L14.0315 16.8886C13.9438 17.1681 13.8984 17.4634 13.8984 17.7666C13.8984 19.5121 15.4221 20.9307 17.2969 20.9307C19.1717 20.9307 20.6953 19.5121 20.6953 17.7666C20.6953 16.0211 19.1717 14.6025 17.2969 14.6025ZM17.2969 2.05176C18.1097 2.05176 18.7695 2.66611 18.7695 3.42285C18.7695 4.17959 18.1097 4.79395 17.2969 4.79395C16.4841 4.79395 15.8242 4.17959 15.8242 3.42285C15.8242 2.66611 16.4841 2.05176 17.2969 2.05176ZM4.83594 12.915C3.4624 12.915 2.34375 11.8735 2.34375 10.5947C2.34375 9.31592 3.4624 8.27441 4.83594 8.27441C6.20947 8.27441 7.32812 9.31592 7.32812 10.5947C7.32812 11.8735 6.20947 12.915 4.83594 12.915ZM17.2969 19.1377C16.4841 19.1377 15.8242 18.5233 15.8242 17.7666C15.8242 17.0099 16.4841 16.3955 17.2969 16.3955C18.1097 16.3955 18.7695 17.0099 18.7695 17.7666C18.7695 18.5233 18.1097 19.1377 17.2969 19.1377Z" fill="#555555"/>
</svg>
