<svg width="80" height="83" viewBox="0 0 80 83" fill="none" xmlns="http://www.w3.org/2000/svg">
<path fill-rule="evenodd" clip-rule="evenodd" d="M36.9972 0.476088C31.0669 1.06175 26.6562 2.35513 21.6626 4.97268C15.7472 8.07318 10.4391 12.9761 6.56865 18.9141C4.92988 21.4283 2.92731 25.6727 1.96576 28.6697C1.18964 31.0888 0.573131 33.8418 0.196338 36.5709C-0.0654459 38.4674 -0.0654459 44.8332 0.196338 46.7296C0.851971 51.4792 2.07013 55.6398 3.97335 59.6296C6.12661 64.1436 8.23574 67.1762 11.7178 70.7646C15.1618 74.3136 18.1505 76.5298 22.3667 78.6612C25.3086 80.1484 27.2081 80.8722 30.1905 81.6431C38.0165 83.666 45.8655 83.278 53.5115 80.4907C55.8292 79.6459 59.875 77.5563 61.9551 76.13C67.6661 72.2138 72.3859 66.8064 75.5109 60.5992C78.3382 54.9828 79.7529 49.4106 79.9737 43.0209C80.2112 36.1438 78.8389 29.5987 75.8698 23.4464C73.9201 19.4066 71.7497 16.2405 68.7021 12.9908C65.3227 9.38688 62.008 6.90042 57.5738 4.64261C52.9388 2.28272 48.6202 1.02305 43.4909 0.534622C41.8968 0.382886 38.2726 0.350153 36.9972 0.476088ZM43.178 5.37081C55.4576 6.53067 66.3303 14.2916 71.7406 25.7588C73.3897 29.2544 74.326 32.3465 74.966 36.4097C75.356 38.8865 75.356 44.4141 74.966 46.8909C74.326 50.954 73.3897 54.0461 71.7406 57.5417C68.2491 64.9418 62.5836 70.778 55.3831 74.3919C52.0046 76.0876 48.9998 77.054 45.0557 77.7137C42.6504 78.1158 37.2873 78.1157 34.8848 77.7132C28.1146 76.579 22.2347 73.834 17.1248 69.4225C9.33326 62.6957 4.60707 52.2098 4.60707 41.6503C4.60707 31.0862 9.31057 20.6485 17.1248 13.8724C24.3856 7.57605 33.8452 4.48926 43.178 5.37081ZM22.9926 25.4568C20.0625 26.1234 17.3586 28.2822 16.0397 31.0078C15.4438 32.2393 15.3828 32.4724 15.4389 33.3034C15.4864 34.0038 15.594 34.3305 15.8829 34.649C16.4108 35.2314 17.0084 35.5228 17.675 35.5228C18.7628 35.5228 19.4267 34.9409 20.1802 33.3264C21.4088 30.694 24.0772 29.4913 26.7988 30.3432C28.2945 30.8113 29.4341 31.8771 30.2692 33.5888C30.9377 34.9587 31.3957 35.3685 32.3878 35.4838C33.6975 35.6358 34.7973 34.6824 34.9238 33.285C34.9816 32.646 34.8901 32.3328 34.2822 31.0884C32.5477 27.5382 29.403 25.4376 25.5745 25.2719C24.5932 25.2295 23.7157 25.2923 22.9926 25.4568ZM52.723 25.4302C50.5455 25.9502 48.5302 27.143 47.1673 28.7184C46.7258 29.2289 46.0539 30.3036 45.6555 31.1371C45.0454 32.4134 44.9501 32.7416 45.0155 33.3395C45.167 34.7256 46.2639 35.6334 47.5994 35.4783C48.5691 35.3657 49.0303 34.9515 49.6694 33.6194C50.5486 31.7863 51.6546 30.7829 53.3581 30.2725C54.6323 29.8908 55.9838 30.0253 57.2301 30.6581C58.4639 31.2844 59.0465 31.9108 59.8791 33.5067C60.6469 34.9784 61.2791 35.5228 62.2208 35.5228C63.7608 35.5228 64.8392 34.1165 64.5019 32.5481C64.228 31.275 63.2696 29.6869 61.9624 28.3396C60.6316 26.9684 59.2845 26.1165 57.652 25.614C56.4534 25.2451 53.8974 25.1498 52.723 25.4302ZM24.6197 51.8525C23.9803 52.2927 23.5409 53.1323 23.5406 53.9147C23.5402 54.989 25.5125 57.8173 27.4783 59.5609C33.7694 65.1412 42.1762 66.0682 49.2023 61.9562C51.8486 60.4076 54.3784 57.9335 55.8134 55.4906C56.6934 53.9926 56.5828 52.8868 55.4549 51.9088C55.0723 51.5771 54.8008 51.4865 54.1898 51.4865C53.1139 51.4865 52.6047 51.8099 51.8399 52.9796C49.7792 56.1308 46.5605 58.4424 43.0001 59.3287C41.5649 59.6858 38.5557 59.6866 37.0215 59.3301C33.5461 58.5227 30.3745 56.3064 28.2737 53.2167C27.8043 52.5264 27.2197 51.8546 26.9745 51.724C26.3001 51.3646 25.2448 51.4221 24.6197 51.8525Z" fill="white"/>
</svg>
