<svg width="86" height="83" viewBox="0 0 86 83" fill="none" xmlns="http://www.w3.org/2000/svg">
<path fill-rule="evenodd" clip-rule="evenodd" d="M41.8335 0.20374C41.5257 0.360719 40.9727 1.33612 39.715 3.94081C38.779 5.87941 37.99 7.52796 37.9618 7.60447C37.9335 7.68081 36.3743 7.96846 34.497 8.24391C32.6195 8.51918 30.8105 8.82471 30.4768 8.92289C29.7371 9.14056 29.3336 9.731 29.3328 10.5974C29.3321 11.2116 29.4913 11.411 32.1546 14.1359L34.9771 17.0234L34.3336 20.919C33.7598 24.3939 33.7145 24.8743 33.9145 25.3679C34.0378 25.6722 34.29 26.0048 34.4751 26.1071C35.2772 26.5498 35.9292 26.332 39.2897 24.4982L42.5782 22.7037L45.9332 24.4982C49.6314 26.4764 50.188 26.6304 50.9177 25.8777C51.1389 25.6494 51.3631 25.2819 51.4157 25.061C51.4686 24.8401 51.2239 22.9379 50.872 20.8341L50.2325 17.0088L53.0146 14.1665C55.9601 11.1572 56.1556 10.8469 55.7442 9.83141C55.4221 9.03568 54.8441 8.83898 51.3336 8.33039C49.6377 8.08486 48.0364 7.83985 47.775 7.78621C47.3457 7.698 47.1405 7.35327 45.6537 4.22417C44.746 2.31411 43.8149 0.586474 43.5779 0.373099C43.1008 -0.0564025 42.465 -0.118128 41.8335 0.20374ZM45.3335 10.6789C45.6739 10.9294 49.468 11.6589 50.551 11.6823C50.6605 11.6847 49.8689 12.5647 48.7919 13.6379C46.5239 15.8979 46.6149 15.6034 47.1669 18.8994C47.349 19.9869 47.4985 21.0103 47.499 21.1736C47.5 21.4097 47.0435 21.2242 45.2777 20.271C44.0552 19.6112 42.8438 19.0714 42.5855 19.0714C42.3253 19.0714 41.1233 19.6118 39.8913 20.2825C38.6678 20.9488 37.6668 21.415 37.6668 21.3189C37.6668 21.2228 37.8525 20.0519 38.0795 18.717C38.4392 16.602 38.4637 16.2198 38.2707 15.7463C38.149 15.4473 37.2808 14.443 36.3418 13.5145C35.4027 12.5859 34.6655 11.7939 34.7036 11.7547C34.7418 11.7153 35.8553 11.5214 37.1783 11.3237C38.5012 11.1261 39.7455 10.857 39.9433 10.7257C40.1438 10.5928 40.8045 9.4148 41.4352 8.06595L42.567 5.64489L43.742 8.00869C44.4075 9.34758 45.0975 10.5054 45.3335 10.6789ZM13.2559 15.8305C12.8969 16.1218 11.0037 19.6984 10.6462 20.7607C10.6115 20.8633 9.53337 21.1071 8.25003 21.3024C5.21002 21.7655 5.20569 21.7667 4.73569 22.2514C4.43485 22.5617 4.33335 22.8533 4.33335 23.4076C4.33335 24.1253 4.39619 24.2135 6.30603 26.1786L8.2787 28.2083L7.89653 30.3885C7.26886 33.97 7.3852 34.6857 8.65837 35.0793C9.28937 35.2745 9.36237 35.248 11.7432 33.9622L14.1816 32.6455L16.6512 33.9584C19.4127 35.4266 19.7949 35.4811 20.5789 34.52C21.0963 33.8857 21.0963 33.8888 20.5811 30.7494L20.1623 28.1958L22.0929 26.2556C23.8131 24.527 24.0334 24.2384 24.1139 23.6091C24.1916 23.0027 24.1364 22.8244 23.7243 22.3485C23.2601 21.8126 23.1574 21.7809 20.6033 21.3875C19.1506 21.1638 17.9416 20.9573 17.9166 20.9288C17.8916 20.9001 17.3382 19.7765 16.6871 18.4317C15.7612 16.5203 15.3952 15.9294 15.0097 15.7237C14.3307 15.3615 13.7936 15.3943 13.2559 15.8305ZM69.9228 15.8305C69.5638 16.1218 67.6706 19.6984 67.3131 20.7607C67.2785 20.8633 66.2003 21.1071 64.9169 21.3024C61.8769 21.7655 61.8726 21.7667 61.4026 22.2514C61.1018 22.5617 61.0003 22.8533 61.0003 23.4076C61.0003 24.1253 61.0631 24.2135 62.9729 26.1786L64.9456 28.2083L64.5634 30.3885C63.9358 33.97 64.0521 34.6857 65.3253 35.0793C65.9563 35.2745 66.0293 35.248 68.4101 33.9622L70.8485 32.6455L73.3181 33.9584C76.0797 35.4266 76.4618 35.4811 77.2458 34.52C77.7632 33.8857 77.7632 33.8888 77.248 30.7494L76.8292 28.1958L78.7598 26.2556C80.48 24.527 80.7003 24.2384 80.7808 23.6091C80.8585 23.0027 80.8033 22.8244 80.3912 22.3485C79.927 21.8126 79.8243 21.7809 77.2702 21.3875C75.8175 21.1638 74.6085 20.9573 74.5835 20.9288C74.5585 20.9001 74.0051 19.7765 73.354 18.4317C72.4281 16.5203 72.0621 15.9294 71.6766 15.7237C70.9976 15.3615 70.4605 15.3943 69.9228 15.8305ZM15.8752 23.9527C16.1702 24.1468 18.1572 24.5734 18.7667 24.5734C18.8324 24.5734 18.4286 25.0651 17.8691 25.6662C17.3096 26.2673 16.8087 26.9442 16.7562 27.1707C16.7036 27.3971 16.7637 28.182 16.8896 28.9148C17.0156 29.6476 17.0901 30.2473 17.0552 30.2473C17.0202 30.2473 16.4706 29.9765 15.8334 29.6455C15.1962 29.3146 14.4357 29.0438 14.1431 29.0438C13.8471 29.0438 13.1342 29.3142 12.5356 29.6536C11.9441 29.9891 11.4264 30.2288 11.3852 30.1863C11.3442 30.1438 11.3905 29.6617 11.4885 29.1149C11.8266 27.2291 11.7834 27.0718 10.5765 25.7821L9.48637 24.6172L10.7284 24.4267C12.5847 24.1418 12.7682 24.0118 13.5359 22.4365L14.2084 21.0569L14.8544 22.3815C15.2096 23.1098 15.6691 23.817 15.8752 23.9527ZM72.5421 23.9527C72.8371 24.1468 74.8242 24.5734 75.4337 24.5734C75.4993 24.5734 75.0955 25.0651 74.536 25.6662C73.9765 26.2673 73.4756 26.9442 73.4231 27.1707C73.3705 27.3971 73.4306 28.182 73.5565 28.9148C73.6825 29.6476 73.757 30.2473 73.7221 30.2473C73.6871 30.2473 73.1375 29.9765 72.5003 29.6455C71.8631 29.3146 71.1026 29.0438 70.81 29.0438C70.514 29.0438 69.8011 29.3142 69.2025 29.6536C68.611 29.9891 68.0933 30.2288 68.0521 30.1863C68.0111 30.1438 68.0575 29.6617 68.1555 29.1149C68.4935 27.2291 68.4503 27.0718 67.2435 25.7821L66.1533 24.6172L67.3953 24.4267C69.2516 24.1418 69.4351 24.0118 70.2028 22.4365L70.8753 21.0569L71.5213 22.3815C71.8765 23.1098 72.336 23.817 72.5421 23.9527ZM40.1843 31.1897C37.6385 31.7864 35.94 32.629 34.126 34.1954C32.1761 35.8792 30.6351 38.2916 29.894 40.8215C29.497 42.1764 29.4406 42.658 29.4406 44.6901C29.4406 46.7223 29.497 47.2039 29.894 48.5587C30.8706 51.8921 33.0253 54.7069 36.049 56.5996C37.1282 57.2753 39.2198 58.0447 40.4498 58.2186C41.295 58.3381 41.41 58.6171 40.6142 58.6171C39.1472 58.6171 36.4515 59.3683 34.3525 60.3619C32.1381 61.4102 30.2528 62.7995 28.372 64.7687L26.6606 66.5605L25.9823 65.9283C24.1523 64.2228 21.3339 62.8236 18.5492 62.2381C17.6226 62.0433 16.8012 61.8777 16.7239 61.8703C16.6466 61.8628 17.0709 61.7483 17.6667 61.6157C22.0954 60.6308 25.4943 56.2677 25.4943 51.5676C25.4943 46.0044 20.8928 41.2574 15.5001 41.2574C10.1074 41.2574 5.50586 46.0044 5.50586 51.5676C5.50586 56.2696 8.93004 60.6616 13.3334 61.6075L14.4167 61.8403L13.7501 61.9649C10.9359 62.4909 8.98654 63.2211 7.1537 64.436C4.46202 66.2199 2.09018 69.1385 1.03284 71.9678C0.277834 73.988 0 75.8128 0 78.7502V81.3074L0.486335 81.869L0.972671 82.4305L42.5662 82.4745L84.1595 82.5186L84.705 82.0162L85.2504 81.5139L85.3039 78.93C85.3657 75.9435 85.102 74.1104 84.3027 71.972C83.2432 69.1382 80.8732 66.2209 78.18 64.436C76.3472 63.2211 74.3978 62.4909 71.5836 61.9649L70.917 61.8403L72.0003 61.6075C76.4037 60.6616 79.8278 56.2696 79.8278 51.5676C79.8278 46.0044 75.2263 41.2574 69.8336 41.2574C64.4409 41.2574 59.8394 46.0044 59.8394 51.5676C59.8394 56.2677 63.2383 60.6308 67.667 61.6157C68.2628 61.7483 68.6871 61.8628 68.6098 61.8703C68.5325 61.8777 67.7111 62.0433 66.7844 62.2381C63.9918 62.8253 61.1818 64.2225 59.3381 65.9406L58.6464 66.5854L57.3847 65.1709C55.7577 63.3468 53.8711 61.8741 51.7094 60.7411C49.3882 59.5243 46.4025 58.6171 44.7195 58.6171C43.9237 58.6171 44.0387 58.3381 44.8839 58.2186C46.1139 58.0447 48.2055 57.2753 49.2847 56.5996C52.3084 54.7069 54.4631 51.8921 55.4397 48.5587C55.8367 47.2039 55.8931 46.7223 55.8931 44.6901C55.8931 42.658 55.8367 42.1764 55.4397 40.8215C54.1404 36.3872 50.67 32.8128 46.4169 31.5279C44.5389 30.9607 41.7968 30.8118 40.1843 31.1897ZM44.7502 34.6324C49.2477 35.6066 52.6611 39.9462 52.6611 44.6901C52.6611 49.4341 49.2477 53.7736 44.7502 54.7478C41.3577 55.4825 38.1275 54.4811 35.6517 51.9272C31.6795 47.8294 31.6795 41.5509 35.6517 37.4531C38.1288 34.8976 41.3557 33.8972 44.7502 34.6324ZM17.0534 44.9472C19.7543 45.6729 21.5191 47.6488 22.0383 50.5281C22.3983 52.5257 21.6554 54.8625 20.1748 56.3902C18.6939 57.9177 16.4287 58.684 14.4924 58.3126C11.5342 57.745 9.51204 55.6589 8.96187 52.6072C8.60437 50.6234 9.34454 48.273 10.7999 46.7714C12.5017 45.0159 14.8067 44.3435 17.0534 44.9472ZM71.387 44.9472C74.0878 45.6729 75.8527 47.6488 76.3718 50.5281C76.7318 52.5257 75.989 54.8625 74.5083 56.3902C73.0275 57.9177 70.7623 58.684 68.826 58.3126C65.8678 57.745 63.8456 55.6589 63.2954 52.6072C62.9379 50.6234 63.6781 48.273 65.1334 46.7714C66.8353 45.0159 69.1403 44.3435 71.387 44.9472ZM46.6669 62.3941C48.6507 62.8956 51.4649 64.3557 53.1454 65.7553C55.4646 67.687 57.4916 70.7073 58.4777 73.7009C58.8789 74.9184 59.3336 77.4216 59.3336 78.4125V79.0777H42.6668H26.0001V78.4125C26.0001 78.0466 26.1133 77.0777 26.2516 76.2595C27.464 69.0871 32.8293 63.5089 39.8362 62.1362C41.546 61.8011 44.8087 61.9243 46.6669 62.3941ZM18.7441 65.7627C20.7696 66.3285 23.1624 67.7326 24.4003 69.0814L24.8839 69.6082L24.3708 70.8613C23.4033 73.2239 22.9638 75.0785 22.7396 77.7452L22.6276 79.0777H12.9806H3.33335L3.33618 77.6592C3.34568 73.0721 5.80652 68.9607 9.83337 66.8048C11.0369 66.1604 12.2689 65.7133 13.4606 65.4884C14.5754 65.2782 17.5654 65.4332 18.7441 65.7627ZM42.0648 65.4912C41.5402 65.7099 41.0002 66.5068 41.0002 67.0625C41.0002 67.7508 41.7662 68.5768 42.519 68.7001C43.0265 68.7833 43.2092 68.7176 43.6819 68.2819C44.15 67.8503 44.2427 67.6457 44.2427 67.0421C44.2427 66.4437 44.1494 66.2333 43.702 65.821C43.1545 65.3162 42.703 65.2252 42.0648 65.4912ZM73.2503 65.8443C76.6407 66.9252 79.312 69.2408 80.8273 72.4124C81.6322 74.0969 81.9935 75.7172 81.9975 77.6592L82.0003 79.0777H72.3531H62.7061L62.5941 77.7452C62.3699 75.0785 61.9304 73.2239 60.9629 70.8613L60.4498 69.6082L60.9334 69.0814C62.5151 67.3579 65.4189 65.8765 68.0836 65.4338C69.2123 65.2462 72.092 65.475 73.2503 65.8443ZM47.9094 67.8081C47.5987 68.1284 47.5002 68.4124 47.5002 68.9874C47.5002 69.72 47.5482 69.7903 48.9585 71.1242C49.7687 71.8906 50.676 72.9435 51.0002 73.4937C51.8296 74.9015 52.5429 75.639 53.0752 75.639C54.1472 75.639 54.9512 74.7342 54.7901 73.7093C54.5707 72.3149 52.1276 69.1064 50.3714 67.9064C49.3935 67.2383 48.4964 67.2023 47.9094 67.8081Z" fill="white"/>
</svg>
