<svg width="100" height="100" viewBox="0 0 100 100" fill="none" xmlns="http://www.w3.org/2000/svg">
<g clip-path="url(#clip0)">
<path d="M40.2344 10.9375L11.7188 7.8125H10.7422C4.81895 7.8125 0 12.6314 0 18.5547V89.2578C0 95.1811 4.81895 100 10.7422 100H69.7266C75.6498 100 80.4688 95.1811 80.4688 89.2578V18.5547C80.4688 12.6314 75.6498 7.8125 69.7266 7.8125H68.75L40.2344 10.9375Z" fill="#BD8472"/>
<path d="M69.7266 7.8125H68.75L40.2344 10.9375V100H69.7266C75.6498 100 80.4688 95.1811 80.4688 89.2578V18.5547C80.4688 12.6314 75.6498 7.8125 69.7266 7.8125Z" fill="#A05F4B"/>
<path d="M11.7188 7.8125V68.75L18.75 82.0312L31.25 88.2812H65.8203C67.4383 88.2812 68.75 86.9695 68.75 85.3516V7.8125H11.7188Z" fill="#F6F9F9"/>
<path d="M40.2344 7.8125V88.2812H65.8203C67.4383 88.2812 68.75 86.9695 68.75 85.3516V7.8125H40.2344Z" fill="#E2DFF4"/>
<path d="M11.7188 68.75V85.3516C11.7188 86.9695 13.0305 88.2812 14.6484 88.2812H31.25L11.7188 68.75Z" fill="#F6F9F9"/>
<path d="M54.1016 15.625H26.3672C24.7492 15.625 23.4375 14.3133 23.4375 12.6953V2.92969C23.4375 1.31172 24.7492 0 26.3672 0H54.1016C55.7195 0 57.0312 1.31172 57.0312 2.92969V12.6953C57.0312 14.3133 55.7195 15.625 54.1016 15.625Z" fill="#FFE278"/>
<path d="M54.1016 0H40.2344V15.625H54.1016C55.7195 15.625 57.0312 14.3133 57.0312 12.6953V2.92969C57.0312 1.31172 55.7195 0 54.1016 0Z" fill="#FFC178"/>
<path d="M54.1016 29.2969H26.3672C24.7492 29.2969 23.4375 27.9852 23.4375 26.3672C23.4375 24.7492 24.7492 23.4375 26.3672 23.4375H54.1016C55.7195 23.4375 57.0312 24.7492 57.0312 26.3672C57.0312 27.9852 55.7195 29.2969 54.1016 29.2969Z" fill="#0A617D"/>
<path d="M54.1016 23.4375H40.2344V29.2969H54.1016C55.7195 29.2969 57.0312 27.9852 57.0312 26.3672C57.0312 24.7492 55.7195 23.4375 54.1016 23.4375Z" fill="#05303D"/>
<path d="M52.7445 41.0156H26.3672C24.7492 41.0156 23.4375 39.7039 23.4375 38.0859C23.4375 36.468 24.7492 35.1562 26.3672 35.1562H52.7445C54.3625 35.1562 55.6742 36.468 55.6742 38.0859C55.6742 39.7039 54.3625 41.0156 52.7445 41.0156Z" fill="#0A617D"/>
<path d="M52.7445 35.1562H40.2344V41.0156H52.7445C54.3625 41.0156 55.6742 39.7039 55.6742 38.0859C55.6742 36.468 54.3625 35.1562 52.7445 35.1562Z" fill="#05303D"/>
<path d="M48.2422 52.7344H26.3672C24.7492 52.7344 23.4375 51.4227 23.4375 49.8047C23.4375 48.1867 24.7492 46.875 26.3672 46.875H48.2422C49.8602 46.875 51.1719 48.1867 51.1719 49.8047C51.1719 51.4227 49.8602 52.7344 48.2422 52.7344Z" fill="#0A617D"/>
<path d="M48.2422 46.875H40.2344V52.7344H48.2422C49.8602 52.7344 51.1719 51.4227 51.1719 49.8047C51.1719 48.1867 49.8602 46.875 48.2422 46.875Z" fill="#05303D"/>
<path d="M52.7447 64.4531H38.0859C36.468 64.4531 35.1562 63.1414 35.1562 61.5234C35.1562 59.9055 36.468 58.5938 38.0859 58.5938H52.7447C54.3627 58.5938 55.6744 59.9055 55.6744 61.5234C55.6744 63.1414 54.3627 64.4531 52.7447 64.4531Z" fill="#0A617D"/>
<path d="M52.7447 58.5938H40.2344V64.4531H52.7447C54.3627 64.4531 55.6744 63.1414 55.6744 61.5234C55.6744 59.9055 54.3627 58.5938 52.7447 58.5938Z" fill="#05303D"/>
<path d="M31.25 88.2812L11.7188 68.75H28.3203C29.9383 68.75 31.25 70.0617 31.25 71.6797V88.2812Z" fill="#E2DFF4"/>
<path d="M80.4567 56.1541L72.1704 64.4406L89.9979 82.2681C92.2862 84.5564 95.996 84.5564 98.2843 82.2681C100.573 79.9798 100.573 76.27 98.2843 73.9818L80.4567 56.1541Z" fill="#05303D"/>
<path d="M76.3134 60.2976L72.1704 64.4406L89.9979 82.2681C92.286 84.5562 95.996 84.5564 98.2841 82.2683L76.3134 60.2976Z" fill="#0A617D"/>
<path d="M65.8213 70.3125C54.5133 70.3125 45.3135 61.1127 45.3135 49.8047C45.3135 38.4967 54.5133 29.2969 65.8213 29.2969C77.1293 29.2969 86.3291 38.4967 86.3291 49.8047C86.3291 61.1127 77.1293 70.3125 65.8213 70.3125Z" fill="#FF405C"/>
<path d="M51.325 35.3101C47.6115 39.0235 45.3115 44.1505 45.3115 49.8044C45.3115 61.1124 54.5113 70.3122 65.8193 70.3122C71.4732 70.3122 76.6002 68.0122 80.3137 64.2987L51.325 35.3101Z" fill="#FF7D47"/>
<path d="M65.8193 64.4531C73.9094 64.4531 80.4678 57.8948 80.4678 49.8047C80.4678 41.7146 73.9094 35.1562 65.8193 35.1562C57.7292 35.1562 51.1709 41.7146 51.1709 49.8047C51.1709 57.8948 57.7292 64.4531 65.8193 64.4531Z" fill="#E2DFF4"/>
<path d="M55.4662 39.4517C52.8137 42.1042 51.1709 45.7663 51.1709 49.8048C51.1709 57.8819 57.7422 64.4532 65.8193 64.4532C69.8578 64.4532 73.5199 62.8104 76.1725 60.1579L55.4662 39.4517Z" fill="#F6F9F9"/>
</g>
<defs>
<clipPath id="clip0">
<rect width="100" height="100" fill="white"/>
</clipPath>
</defs>
</svg>
