<svg width="22" height="21" viewBox="0 0 22 21" fill="none" xmlns="http://www.w3.org/2000/svg">
<path d="M5.201 21H0.84725V6.9795H5.201V21ZM3.0215 5.067C1.6295 5.067 0.5 3.9135 0.5 2.5215C0.5 1.85276 0.765657 1.2114 1.23853 0.73853C1.7114 0.265657 2.35276 0 3.0215 0C3.69024 0 4.3316 0.265657 4.80447 0.73853C5.27734 1.2114 5.543 1.85276 5.543 2.5215C5.543 3.9135 4.4135 5.067 3.0215 5.067ZM21.4955 21H17.1515V14.175C17.1515 12.5483 17.1185 10.4625 14.888 10.4625C12.6245 10.4625 12.2772 12.2295 12.2772 14.058V21H7.928V6.9795H12.1033V8.892H12.164C12.7452 7.79025 14.165 6.62775 16.283 6.62775C20.6893 6.62775 21.4993 9.5295 21.4993 13.2983V21H21.4955Z" fill="#444444"/>
</svg>
