<svg width="22" height="16" viewBox="0 0 22 16" fill="none" xmlns="http://www.w3.org/2000/svg">
<path d="M0.888997 2.343L9.889 7.1778C10.1914 7.33981 10.5826 7.41661 10.9762 7.41661C11.3698 7.41661 11.761 7.33981 12.0634 7.1778L21.0634 2.343C21.6502 2.0274 22.2046 0.799805 21.1282 0.799805H0.825397C-0.251003 0.799805 0.303397 2.0274 0.888997 2.343ZM21.3358 4.98661L12.0634 9.81901C11.6554 10.0326 11.3698 10.0578 10.9762 10.0578C10.5826 10.0578 10.297 10.0326 9.889 9.81901C9.481 9.60541 1.3294 5.33221 0.663397 4.9854C0.195397 4.74061 0.200197 5.0274 0.200197 5.24821V13.9998C0.200197 14.5038 0.879397 15.1998 1.4002 15.1998H20.6002C21.121 15.1998 21.8002 14.5038 21.8002 13.9998V5.24941C21.8002 5.02861 21.805 4.74181 21.3358 4.98661Z" fill="#444444"/>
</svg>
