<svg width="24" height="20" viewBox="0 0 24 20" fill="none" xmlns="http://www.w3.org/2000/svg">
<path d="M23.9523 2.56963C23.054 2.96451 22.1026 3.22529 21.1285 3.34363C22.1553 2.72735 22.924 1.75988 23.2923 0.620375C22.3211 1.18363 21.2641 1.58369 20.1633 1.80463C19.4231 1.01372 18.4425 0.489219 17.3738 0.312499C16.305 0.13578 15.2078 0.316721 14.2524 0.827251C13.297 1.33778 12.5368 2.14936 12.0897 3.13606C11.6426 4.12277 11.5337 5.22944 11.7798 6.28438C7.69005 6.09313 4.06455 4.12813 1.6398 1.15963C1.1984 1.91029 0.967553 2.76607 0.971547 3.63688C0.970945 4.4464 1.17025 5.24354 1.55178 5.95752C1.9333 6.6715 2.48523 7.28022 3.15855 7.72963C2.37827 7.70604 1.61498 7.49593 0.932547 7.11688V7.17613C0.932309 8.31239 1.32495 9.41379 2.04394 10.2937C2.76292 11.1735 3.76401 11.7777 4.87755 12.0039C4.45574 12.1166 4.02115 12.1743 3.58455 12.1756C3.2688 12.1756 2.9673 12.1449 2.66655 12.0894C2.98344 13.0672 3.5973 13.9218 4.42268 14.5344C5.24805 15.147 6.24388 15.487 7.27155 15.5071C5.53035 16.8707 3.38189 17.6105 1.1703 17.6079C0.778576 17.6094 0.387118 17.5874 -0.00195312 17.5419C2.25411 18.9875 4.87782 19.7549 7.5573 19.7529C16.6075 19.7529 21.553 12.2566 21.553 5.76463C21.553 5.55763 21.553 5.34688 21.5373 5.13538C22.5047 4.44204 23.3384 3.57909 23.998 2.58838L23.9523 2.56963Z" fill="#444444"/>
</svg>
