<svg width="32" height="20" viewBox="0 0 32 20" fill="none" xmlns="http://www.w3.org/2000/svg">
<path d="M2.53566 10.0601C1.48617 10.6097 1.05359 12.5032 0.968492 13.3813C0.265507 17.2014 2.47868 17.8505 3.67314 17.6975C4.57221 17.6332 7.05076 17.5254 9.77238 17.6088C12.494 17.6923 12.5822 14.8838 12.286 13.4691C12.2554 11.4778 11.1095 10.2829 10.5404 9.93432C8.83601 9.34154 9.42824 9.76529 7.71001 10.5808C5.99178 11.3962 4.55567 10.1985 4.44134 10.0483C4.32702 9.89815 3.84752 9.3731 2.53566 10.0601Z" fill="black" stroke="white"/>
<path d="M9.30207 5.96305C9.31351 7.78061 8.0046 9.17199 6.48506 9.18155C4.96552 9.19111 3.6392 7.81631 3.62777 5.99876C3.61633 4.18121 4.92524 2.78982 6.44478 2.78026C7.96432 2.7707 9.29064 4.1455 9.30207 5.96305Z" fill="black" stroke="white"/>
<path d="M20.7027 9.88088C19.6532 10.4305 19.2206 12.324 19.1355 13.2021C18.4325 17.0222 20.6457 17.6713 21.8401 17.5183C22.7392 17.454 25.2178 17.3462 27.9394 17.4296C30.661 17.5131 30.7491 14.7046 30.453 13.2899C30.4223 11.2986 29.2765 10.1037 28.7074 9.75512C27.003 9.16234 27.5952 9.58609 25.877 10.4016C24.1588 11.217 22.7227 10.0193 22.6083 9.8691C22.494 9.71895 22.0145 9.1939 20.7027 9.88088Z" fill="black" stroke="white"/>
<path d="M27.4691 5.78385C27.4805 7.60141 26.1716 8.99279 24.6521 9.00235C23.1325 9.01191 21.8062 7.63711 21.7948 5.81956C21.7833 4.00201 23.0922 2.61062 24.6118 2.60106C26.1313 2.5915 27.4576 3.9663 27.4691 5.78385Z" fill="black" stroke="white"/>
<path d="M10.7324 8.14743C9.44033 8.89622 8.90916 11.4788 8.80508 12.6765C7.94249 17.8867 10.6687 18.7739 12.1396 18.5662C13.2469 18.4792 16.2993 18.3343 19.6512 18.4504C23.0031 18.5665 23.1094 14.7356 22.7435 12.8057C22.704 10.0893 21.2919 8.45846 20.5907 7.98256C18.4911 7.17257 19.2208 7.75108 17.1054 8.862C14.99 9.97292 13.2203 8.33788 13.0794 8.13296C12.9384 7.92805 12.3475 7.21146 10.7324 8.14743Z" fill="black" stroke="white"/>
<path d="M18.4359 3.90739C18.4473 5.72494 17.1384 7.11633 15.6188 7.12589C14.0993 7.13545 12.773 5.76065 12.7616 3.94309C12.7501 2.12554 14.059 0.734159 15.5786 0.724597C17.0981 0.715036 18.4244 2.08984 18.4359 3.90739Z" fill="black" stroke="white"/>
</svg>
