<svg width="1542" height="2931" viewBox="0 0 1542 2931" fill="none" xmlns="http://www.w3.org/2000/svg">
<g opacity="0.4">
<ellipse cx="279.749" cy="255.663" rx="191.029" ry="181.323" transform="rotate(-161.981 279.749 255.663)" fill="#F8A762"/>
<path d="M144.175 184.869C174.78 90.7805 280.03 40.4881 379.403 72.812C478.775 105.136 534.297 207.724 503.692 301.812C473.087 395.9 367.836 446.193 268.464 413.869C169.091 381.545 113.57 278.957 144.175 184.869Z" stroke="#067C4B" stroke-width="4"/>
</g>
<g opacity="0.4">
<circle cx="301.526" cy="1521.38" r="239.252" transform="rotate(-161.981 301.526 1521.38)" fill="#F8A762"/>
<circle cx="357.39" cy="1504.33" r="237.252" transform="rotate(-161.981 357.39 1504.33)" stroke="#067C4B" stroke-width="4"/>
</g>
<g opacity="0.4">
<ellipse cx="1294.45" cy="1576.22" rx="166.147" ry="163.109" transform="rotate(-161.981 1294.45 1576.22)" fill="#F8A762"/>
<path d="M1177.02 1514.01C1204.53 1429.43 1296.71 1383.52 1382.95 1411.57C1469.19 1439.63 1516.72 1530.98 1489.21 1615.56C1461.7 1700.14 1369.52 1746.04 1283.28 1717.99C1197.04 1689.94 1149.51 1598.59 1177.02 1514.01Z" stroke="#067C4B" stroke-width="4"/>
</g>
<g opacity="0.4">
<ellipse cx="398.452" cy="2246.22" rx="166.147" ry="163.109" transform="rotate(-161.981 398.452 2246.22)" fill="#F8A762"/>
<path d="M281.019 2184.01C308.532 2099.43 400.708 2053.52 486.951 2081.57C573.194 2109.63 620.724 2200.98 593.212 2285.56C565.699 2370.14 473.523 2416.04 387.28 2387.99C301.037 2359.94 253.507 2268.59 281.019 2184.01Z" stroke="#067C4B" stroke-width="4"/>
</g>
<g opacity="0.4">
<circle cx="1114.53" cy="908.379" r="239.252" transform="rotate(-161.981 1114.53 908.379)" fill="#F8A762"/>
<circle cx="1170.39" cy="891.326" r="237.252" transform="rotate(-161.981 1170.39 891.326)" stroke="#067C4B" stroke-width="4"/>
</g>
<g opacity="0.4">
<ellipse cx="1228.45" cy="283.393" rx="205.455" ry="205.607" transform="rotate(-180 1228.45 283.393)" fill="#51A381"/>
<path d="M1066.09 254.607C1066.09 142.157 1157.18 50.9999 1269.55 50.9999C1381.91 50.9999 1473 142.157 1473 254.607C1473 367.058 1381.91 458.215 1269.55 458.215C1157.18 458.215 1066.09 367.058 1066.09 254.607Z" stroke="#F5811E" stroke-width="4"/>
</g>
<g opacity="0.4">
<ellipse cx="630.091" cy="509.204" rx="144.091" ry="145.794" transform="rotate(-180 630.091 509.204)" fill="#51A381"/>
<path d="M516.818 488.794C516.818 409.356 580.457 344.999 658.909 344.999C737.362 344.999 801 409.356 801 488.794C801 568.231 737.362 632.588 658.909 632.588C580.457 632.588 516.818 568.231 516.818 488.794Z" stroke="#F5811E" stroke-width="4"/>
</g>
<g opacity="0.4">
<ellipse cx="273.071" cy="833.701" rx="166.071" ry="174.299" transform="rotate(-180 273.071 833.701)" fill="#51A381"/>
<path d="M142.214 809.299C142.214 714.048 215.761 637 306.285 637C396.808 637 470.355 714.048 470.355 809.299C470.355 904.549 396.808 981.598 306.285 981.598C215.761 981.598 142.214 904.549 142.214 809.299Z" stroke="#F5811E" stroke-width="4"/>
</g>
<g opacity="0.4">
<circle cx="1001.25" cy="2597.75" r="239.252" transform="rotate(-180 1001.25 2597.75)" fill="#51A381"/>
<circle cx="1049.1" cy="2564.25" r="237.252" transform="rotate(-180 1049.1 2564.25)" stroke="#F5811E" stroke-width="4"/>
</g>
<g opacity="0.4">
<ellipse cx="909.546" cy="2007.77" rx="179.545" ry="175.234" transform="rotate(-180 909.546 2007.77)" fill="#51A381"/>
<path d="M767.909 1983.23C767.909 1887.6 847.353 1810 945.455 1810C1043.56 1810 1123 1887.6 1123 1983.23C1123 2078.86 1043.56 2156.47 945.455 2156.47C847.353 2156.47 767.909 2078.86 767.909 1983.23Z" stroke="#F5811E" stroke-width="4"/>
</g>
<g opacity="0.4">
<ellipse cx="799.545" cy="1498.77" rx="179.545" ry="175.234" transform="rotate(-180 799.545 1498.77)" fill="#51A381"/>
<path d="M657.909 1474.23C657.909 1378.6 737.353 1301 835.455 1301C933.556 1301 1013 1378.6 1013 1474.23C1013 1569.86 933.556 1647.47 835.455 1647.47C737.353 1647.47 657.909 1569.86 657.909 1474.23Z" stroke="#F5811E" stroke-width="4"/>
</g>
<g opacity="0.4">
<ellipse cx="299.545" cy="2755.77" rx="179.545" ry="175.234" transform="rotate(-180 299.545 2755.77)" fill="#51A381"/>
<path d="M157.909 2731.23C157.909 2635.6 237.353 2558 335.455 2558C433.556 2558 513 2635.6 513 2731.23C513 2826.86 433.556 2904.47 335.455 2904.47C237.353 2904.47 157.909 2826.86 157.909 2731.23Z" stroke="#F5811E" stroke-width="4"/>
</g>
</svg>
