<svg width="21" height="21" viewBox="0 0 21 21" fill="none" xmlns="http://www.w3.org/2000/svg">
<path d="M0 1.2C0 1.08954 0.0895431 1 0.2 1H20.8C20.9105 1 21 1.08954 21 1.2V20.8C21 20.9105 20.9105 21 20.8 21H0.200001C0.0895443 21 0 20.9105 0 20.8V1.2Z" fill="#FDE0C7"/>
<path fill-rule="evenodd" clip-rule="evenodd" d="M3.6073 0.0201917C3.56876 0.0478449 3.45659 0.141574 3.42186 0.175151C3.38351 0.212221 3.31618 0.292267 3.28503 0.337817C3.17418 0.499921 3.08811 0.725957 3.04122 0.97813C3.00841 1.15462 2.99198 1.38836 3.00386 1.50983C3.02726 1.74923 3.17718 1.93934 3.38278 1.99031C3.42888 2.00174 3.52438 2.00173 3.57023 1.99029C3.66717 1.9661 3.74427 1.91775 3.81276 1.83818C3.90375 1.73247 3.95009 1.60395 3.95075 1.45553C3.95107 1.38244 3.94632 1.34383 3.92941 1.2823C3.86733 1.05635 3.68607 0.901424 3.48262 0.90042C3.43139 0.900166 3.38933 0.906131 3.34963 0.919276C3.31893 0.929444 3.32004 0.934616 3.33561 0.853684C3.37571 0.645346 3.44982 0.432931 3.56453 0.197537C3.66505 -0.00875123 3.66869 -0.0238562 3.6073 0.0201917ZM4.67443 0.00776559C4.64554 0.0252101 4.53401 0.115347 4.48285 0.162612C4.4189 0.22167 4.34235 0.317644 4.29255 0.401169C4.14139 0.65474 4.05069 1.02921 4.04978 1.40349C4.04955 1.50121 4.05053 1.51978 4.05804 1.56006C4.10787 1.82717 4.31086 2.01133 4.54235 1.99946C4.66403 1.99322 4.76782 1.94222 4.85429 1.84618C4.93204 1.75983 4.97888 1.65371 4.99478 1.52793C5.00878 1.41708 4.99467 1.31258 4.95196 1.21094C4.8855 1.05278 4.76565 0.945201 4.61669 0.910004C4.5484 0.893872 4.44606 0.899067 4.39126 0.921457C4.38185 0.925304 4.37345 0.927625 4.37258 0.92662C4.37049 0.9242 4.38101 0.860662 4.39121 0.814066C4.43659 0.606823 4.50373 0.421102 4.6196 0.182346C4.68258 0.0525556 4.69582 0.0227167 4.69582 0.0105802C4.69582 -0.00109012 4.6903 -0.00181416 4.67443 0.00776559Z" fill="#51A381"/>
<path d="M17 18C17 19.1046 16.1046 20 15 20C13.8954 20 13 19.1046 13 18C13 16.8954 13.8954 16 15 16C16.1046 16 17 16.8954 17 18Z" fill="#067C4B"/>
</svg>
