<svg width="36" height="20" viewBox="0 0 36 20" fill="none" xmlns="http://www.w3.org/2000/svg">
<path d="M0 3.20313C0 2.65084 0.447715 2.20312 1 2.20312H34.3315C34.8837 2.20312 35.3315 2.65084 35.3315 3.20312V19.001C35.3315 19.5533 34.8837 20.001 34.3315 20.001H1C0.447717 20.001 0 19.5533 0 19.001V3.20313Z" fill="#FDE0C7"/>
<path fill-rule="evenodd" clip-rule="evenodd" d="M5.24231 0.0317464C5.16347 0.0752243 4.93402 0.222591 4.86297 0.275382C4.78451 0.333665 4.64678 0.459517 4.58306 0.531134C4.3563 0.786003 4.18025 1.14139 4.08433 1.53787C4.0172 1.81536 3.98359 2.18285 4.00789 2.37384C4.05577 2.75024 4.36245 3.04913 4.78303 3.12928C4.87732 3.14725 5.07269 3.14723 5.16647 3.12925C5.36477 3.09121 5.5225 3.01519 5.6626 2.89008C5.84873 2.72388 5.94353 2.52182 5.94488 2.28846C5.94554 2.17355 5.93581 2.11284 5.90123 2.0161C5.77423 1.66085 5.40343 1.41727 4.98725 1.41569C4.88246 1.41529 4.79643 1.42467 4.7152 1.44534C4.65242 1.46132 4.65467 1.46945 4.68654 1.34221C4.76856 1.01465 4.92016 0.680677 5.15481 0.310578C5.36044 -0.0137591 5.36789 -0.037508 5.24231 0.0317464ZM7.42526 0.0122095C7.36616 0.0396366 7.13801 0.181354 7.03334 0.255667C6.90253 0.348521 6.74593 0.499416 6.64407 0.630739C6.33486 1.02942 6.14931 1.61818 6.14746 2.20664C6.14697 2.36028 6.14898 2.38948 6.16435 2.45281C6.26629 2.87277 6.68153 3.16232 7.15507 3.14366C7.40398 3.13384 7.6163 3.05366 7.79318 2.90267C7.95223 2.7669 8.04805 2.60005 8.08056 2.4023C8.10921 2.22802 8.08033 2.0637 7.99297 1.9039C7.85702 1.65523 7.61185 1.4861 7.30714 1.43076C7.16743 1.40539 6.9581 1.41356 6.84599 1.44877C6.82675 1.45481 6.80956 1.45846 6.80779 1.45688C6.80351 1.45308 6.82502 1.35318 6.84589 1.27992C6.93872 0.954081 7.07606 0.66208 7.31308 0.286694C7.44192 0.0826307 7.46901 0.0357164 7.46901 0.0166348C7.46901 -0.00171395 7.45772 -0.00285231 7.42526 0.0122095Z" fill="#51A381"/>
<ellipse cx="28.7666" cy="17.5723" rx="1.76657" ry="1.57225" fill="#067C4B"/>
</svg>
