<svg width="58" height="50" viewBox="0 0 58 50" fill="none" xmlns="http://www.w3.org/2000/svg">
<path fill-rule="evenodd" clip-rule="evenodd" d="M17.5808 0.504791C16.4651 1.19612 13.2179 3.53936 12.2124 4.37878C11.1022 5.30553 9.15297 7.30666 8.25134 8.44542C5.04221 12.498 2.55078 18.1489 1.19334 24.4533C0.2434 28.8656 -0.232193 34.709 0.111605 37.7458C0.789247 43.7309 5.12932 48.4834 11.0811 49.7578C12.4156 50.0436 15.1804 50.0432 16.5075 49.7574C19.3139 49.1526 21.5459 47.9437 23.5286 45.9544C26.1627 43.3117 27.5043 40.0989 27.5233 36.3882C27.5327 34.5611 27.395 33.5957 26.9056 32.0574C25.1083 26.4088 19.861 22.5356 13.9712 22.5105C12.4884 22.5042 11.2709 22.6533 10.1214 22.9819C9.23284 23.2361 9.26475 23.3654 9.71568 21.3421C10.8765 16.1337 13.0219 10.8233 16.3425 4.93842C19.2526 -0.218781 19.358 -0.596405 17.5808 0.504791ZM48.4732 0.19414C47.6368 0.630251 44.4082 2.88366 42.9269 4.06529C41.0758 5.54174 38.8596 7.94109 37.4181 10.0292C33.0422 16.3685 30.4164 25.7303 30.3902 35.0873C30.3833 37.5302 30.4117 37.9944 30.6292 39.0015C32.0719 45.6792 37.9482 50.2833 44.6495 49.9864C48.172 49.8304 51.1767 48.5555 53.6799 46.1545C55.9307 43.9957 57.2867 41.3427 57.7468 38.1983C58.1522 35.4271 57.7436 32.8144 56.5072 30.2734C54.5834 26.3194 51.1138 23.63 46.8016 22.7501C44.8245 22.3468 41.8621 22.4767 40.2756 23.0364C40.0033 23.1326 39.7601 23.1906 39.735 23.1655C39.6745 23.105 39.9788 21.5165 40.2741 20.3517C41.5878 15.1706 43.5315 10.5276 46.8857 4.55865C48.709 1.31389 49.0924 0.567918 49.0924 0.264506C49.0924 -0.0272531 48.9326 -0.0453539 48.4732 0.19414Z" fill="#51A381"/>
</svg>
