<svg width="160" height="193" viewBox="0 0 160 193" fill="none" xmlns="http://www.w3.org/2000/svg">
<path d="M77.2236 78.175C77.4823 77.6635 77.8828 77.2327 78.3795 76.9315C78.8763 76.6303 79.4497 76.4707 80.0347 76.4707C80.6197 76.4707 81.193 76.6303 81.6898 76.9315C82.1866 77.2327 82.587 77.6635 82.8457 78.175L87.2024 86.7851L96.9422 88.1603C97.5212 88.2423 98.0651 88.4806 98.5123 88.8484C98.9596 89.2161 99.2924 89.6986 99.473 90.2412C99.6536 90.7837 99.6748 91.3648 99.5343 91.9185C99.3938 92.4723 99.0971 92.9766 98.6778 93.3745L91.6296 100.071L93.2947 109.529C93.3928 110.09 93.3281 110.667 93.1077 111.195C92.8873 111.723 92.5201 112.18 92.0475 112.514C91.5749 112.849 91.0157 113.049 90.433 113.09C89.8504 113.132 89.2674 113.013 88.7499 112.749L80.0327 108.284L71.3194 112.749C70.8019 113.013 70.219 113.132 69.6363 113.09C69.0536 113.049 68.4944 112.849 68.0218 112.514C67.5492 112.18 67.182 111.723 66.9616 111.195C66.7413 110.667 66.6765 110.09 66.7747 109.529L68.4358 100.071L61.3876 93.3707C60.9694 92.9724 60.6738 92.468 60.5341 91.9146C60.3945 91.3611 60.4163 90.7806 60.5973 90.2386C60.7782 89.6966 61.111 89.2148 61.5581 88.8475C62.0051 88.4803 62.5486 88.2422 63.1271 88.1603L72.8669 86.7813L77.2197 78.175H77.2236Z" fill="#FFC700"/>
<path d="M138.508 115.36C138.581 115.009 138.752 114.684 139.002 114.42C139.252 114.157 139.572 113.967 139.925 113.871C140.278 113.775 140.65 113.777 140.999 113.878C141.348 113.978 141.66 114.172 141.9 114.438L145.941 118.918L152.042 118.15C152.405 118.105 152.772 118.159 153.102 118.308C153.432 118.456 153.712 118.693 153.91 118.991C154.108 119.288 154.216 119.635 154.222 119.993C154.228 120.35 154.132 120.703 153.944 121.011L150.79 126.207L153.346 131.64C153.497 131.963 153.553 132.322 153.507 132.676C153.46 133.03 153.314 133.366 153.083 133.646C152.853 133.925 152.549 134.137 152.204 134.258C151.859 134.379 151.488 134.403 151.132 134.328L145.141 133.064L140.617 137.187C140.348 137.431 140.016 137.598 139.657 137.669C139.299 137.739 138.929 137.711 138.589 137.586C138.249 137.462 137.952 137.246 137.733 136.964C137.513 136.682 137.38 136.344 137.347 135.989L136.798 130.011L131.447 127.125C131.129 126.953 130.868 126.697 130.693 126.386C130.518 126.075 130.436 125.722 130.456 125.365C130.477 125.008 130.598 124.663 130.808 124.368C131.017 124.073 131.306 123.84 131.642 123.696L137.292 121.267L138.506 115.361L138.508 115.36Z" fill="#FFC700"/>
<path d="M34.2192 132.635C34.1108 132.293 34.101 131.926 34.1909 131.574C34.2808 131.222 34.4669 130.9 34.7281 130.644C34.9892 130.387 35.315 130.208 35.6686 130.125C36.0222 130.042 36.3895 130.059 36.7289 130.174L42.4424 132.111L47.3922 128.461C47.6866 128.244 48.0337 128.113 48.3943 128.081C48.755 128.05 49.1147 128.119 49.4328 128.282C49.7509 128.446 50.0147 128.696 50.1944 129.004C50.374 129.313 50.4623 129.668 50.4493 130.029L50.234 136.104L55.1171 139.597C55.4067 139.805 55.6304 140.091 55.763 140.422C55.8955 140.754 55.9316 141.119 55.8672 141.475C55.8028 141.832 55.6405 142.166 55.3985 142.439C55.1565 142.713 54.8446 142.915 54.4978 143.024L48.6519 144.846L46.7168 150.653C46.6015 150.998 46.393 151.305 46.1147 151.542C45.8365 151.779 45.4996 151.934 45.142 151.992C44.7845 152.049 44.4205 152.006 44.0913 151.867C43.762 151.728 43.4805 151.498 43.2785 151.205L39.8802 146.256L33.8012 146.35C33.4401 146.355 33.0874 146.259 32.7828 146.073C32.4782 145.887 32.2339 145.619 32.0774 145.297C31.921 144.976 31.8586 144.616 31.8974 144.256C31.9363 143.896 32.0747 143.552 32.2971 143.262L36.0414 138.384L34.2174 132.636L34.2192 132.635Z" fill="#FFC700"/>
<path d="M56.7363 156.066C59.8105 158.819 65.8791 169.334 65.5605 189.371" stroke="#FFD02F" stroke-width="5" stroke-linecap="round"/>
<circle cx="70.5302" cy="14.6454" r="5.76454" fill="#FF4E61"/>
<circle cx="125.253" cy="62.5849" r="5.76454" fill="#FF4E61"/>
<circle cx="13.0927" cy="168.88" r="5.76454" fill="#62D38F"/>
<circle cx="27.5653" cy="110.991" r="5.76454" fill="#5C73BC"/>
<circle cx="90.1766" cy="28.8992" r="7.35429" fill="#FFC700"/>
<circle cx="126.843" cy="167.29" r="7.35429" fill="#5C73BC"/>
<circle cx="80.0318" cy="133.034" r="3.06502" fill="#5C73BC"/>
<circle cx="80.0318" cy="123.426" r="3.06502" fill="#FFAA00"/>
<circle cx="48.5885" cy="105.227" r="3.06502" fill="#5C73BC"/>
<circle cx="42.4576" cy="97.3717" r="3.06502" fill="#FFAA00"/>
<circle cx="63.3189" cy="66.5123" r="3.06502" fill="#FFAA00"/>
<circle cx="57.1881" cy="58.6568" r="3.06502" fill="#FF4E61"/>
<circle r="3.06502" transform="matrix(-1 0 0 1 111.292 103.545)" fill="#FFAA00"/>
<circle r="3.06502" transform="matrix(-1 0 0 1 117.423 96.69)" fill="#FF4E61"/>
<circle r="3.06502" transform="matrix(-1 0 0 1 96.5619 66.8306)" fill="#62D38F"/>
<circle r="3.06502" transform="matrix(-1 0 0 1 101.693 58.9752)" fill="#FFAA00"/>
<rect x="23.2891" y="3.53711" width="5.48391" height="53.7041" rx="2.74196" transform="rotate(-29.4623 23.2891 3.53711)" fill="#5C73BC"/>
<rect x="0.759766" y="59.2266" width="5.48391" height="46.5777" rx="2.74196" transform="rotate(-44.367 0.759766 59.2266)" fill="#FF4E61"/>
<rect x="77.1523" y="143.936" width="5.48391" height="46.5777" rx="2.74196" fill="#5C73BC"/>
<rect width="5.48391" height="53.7041" rx="2.74196" transform="matrix(-0.870679 -0.491852 -0.491852 0.870679 136.764 4.53711)" fill="#62D38F"/>
<rect width="5.48391" height="10.6838" rx="2.74196" transform="matrix(-0.786601 -0.617462 -0.617462 0.786601 155.719 35.9551)" fill="#5C73BC"/>
<rect width="5.48391" height="10.6838" rx="2.74196" transform="matrix(-0.786601 -0.617462 -0.617462 0.786601 58.793 13.1406)" fill="#FF4E61"/>
<rect width="5.48391" height="10.6838" rx="2.74196" transform="matrix(-0.786601 -0.617462 -0.617462 0.786601 31.8789 41.8496)" fill="#FFAA00"/>
<rect width="5.48391" height="9.9846" rx="2.74196" transform="matrix(-0.786601 -0.617462 -0.617462 0.786601 80.1777 49.5195)" fill="#FF4E61"/>
<rect width="5.48391" height="9.9846" rx="2.74196" transform="matrix(-0.786601 -0.617462 -0.617462 0.786601 13.0684 100.758)" fill="#62D38F"/>
<rect width="5.48391" height="9.9846" rx="2.74196" transform="matrix(-0.786601 -0.617462 -0.617462 0.786601 45.5586 178.031)" fill="#FF4E61"/>
<rect width="5.48391" height="9.9846" rx="2.74196" transform="matrix(-0.786601 -0.617462 -0.617462 0.786601 155.504 166.791)" fill="#FFAA00"/>
<rect width="5.48391" height="45.3912" rx="2.74196" transform="matrix(-0.714876 -0.699252 -0.699252 0.714876 159.83 57.8203)" fill="#FFAA00"/>
<path d="M124.853 134.244C114.293 139.749 93.4752 158.685 94.6768 190.393" stroke="#FF4E61" stroke-width="5" stroke-linecap="round"/>
</svg>
